<?xml version="1.0" encoding="utf-8"?>
<!-- Generator: Adobe Illustrator 24.0.3, SVG Export Plug-In . SVG Version: 6.00 Build 0)  -->
<svg version="1.1" id="Layer_1" xmlns="http://www.w3.org/2000/svg" xmlns:xlink="http://www.w3.org/1999/xlink" x="0px" y="0px"
	 viewBox="0 0 24 24" style="enable-background:new 0 0 24 24;" xml:space="preserve">
<style type="text/css">
	.st0{fill:#FF6633;}
</style>
<title>Adobe Illustrator icon</title>
<path d="M18.78,23.4H5.22C2.34,23.4,0,21.06,0,18.18V5.22C0,2.34,2.34,0,5.22,0h13.56C21.66,0,24,2.34,24,5.22v12.96
	C24,21.06,21.66,23.4,18.78,23.4z"/>
<path class="st0" d="M8.18,14.1l-0.79,3c-0.02,0.08-0.05,0.1-0.15,0.1H5.77c-0.1,0-0.11-0.03-0.1-0.15L8.51,7.1
	c0.05-0.18,0.08-0.34,0.1-0.83c0-0.07,0.03-0.1,0.08-0.1h2.1c0.07,0,0.1,0.02,0.12,0.1l3.18,10.79c0.02,0.08,0,0.13-0.08,0.13h-1.65
	c-0.08,0-0.13-0.02-0.15-0.09l-0.82-3.01L8.18,14.1L8.18,14.1z M10.96,12.47c-0.28-1.11-0.94-3.53-1.19-4.7H9.76
	c-0.21,1.17-0.74,3.15-1.15,4.7H10.96z M15.46,6.91c0-0.64,0.45-1.02,1.02-1.02c0.61,0,1.02,0.41,1.02,1.02
	c0,0.66-0.43,1.02-1.04,1.02C15.87,7.94,15.46,7.57,15.46,6.91L15.46,6.91z M17.38,17.09c0,0.08-0.02,0.12-0.11,0.12h-1.55
	c-0.1,0-0.13-0.05-0.13-0.13V9.19l-0.01,0c0-0.08,0.03-0.11,0.12-0.11h1.57c0.09,0,0.12,0.03,0.12,0.12"/>
<path class="st0" d="M19.75,0H4.25C1.9,0,0,1.9,0,4.25v14.9c0,2.35,1.9,4.25,4.25,4.25h15.5c2.35,0,4.25-1.9,4.25-4.25V4.25
	C24,1.9,22.1,0,19.75,0z M22.99,18.76c0.01,2-1.61,3.63-3.61,3.64c0,0-0.01,0-0.01,0H4.63c-2,0-3.63-1.63-3.63-3.63V4.63
	C1,2.63,2.63,1,4.63,1h14.73c2,0,3.63,1.63,3.63,3.63c0,0,0,0,0,0C22.99,4.63,22.99,18.76,22.99,18.76z"/>
</svg>
