<?xml version="1.0" encoding="utf-8"?>
<!-- Generator: Adobe Illustrator 24.0.3, SVG Export Plug-In . SVG Version: 6.00 Build 0)  -->
<svg version="1.1" id="Layer_1" xmlns="http://www.w3.org/2000/svg" xmlns:xlink="http://www.w3.org/1999/xlink" x="0px" y="0px"
	 viewBox="0 0 24 24" style="enable-background:new 0 0 24 24;" xml:space="preserve">
<style type="text/css">
	.st0{fill:#33CCFF;}
</style>
<title>Adobe Photoshop icon</title>
<path d="M17.58,23.7H6.42C2.87,23.7,0,20.83,0,17.28V6.72C0,3.17,2.87,0.3,6.42,0.3h11.16C21.12,0.3,24,3.17,24,6.72v10.56
	C24,20.83,21.12,23.7,17.58,23.7z"/>
<path class="st0" d="M5.9,6.16C5.9,6.1,5.92,6.05,6,6.05C6.63,6.02,7.53,6,8.5,6c2.7,0,3.88,1.48,3.88,3.38
	c0,2.48-1.82,3.54-4.02,3.54c-0.37,0-0.5-0.02-0.76-0.02v3.8c0,0.08-0.03,0.11-0.11,0.11H6.01c-0.08,0-0.11-0.03-0.11-0.11V6.16z
	 M7.6,11.34c0.22,0.02,0.4,0.02,0.79,0.02c1.14,0,2.23-0.4,2.23-1.95c0-1.24-0.78-1.87-2.09-1.87c-0.39,0-0.76,0.02-0.93,0.03
	L7.6,11.34z M16.32,10.18c-0.77,0-1.03,0.39-1.03,0.71c0,0.35,0.18,0.6,1.21,1.13c1.53,0.74,2.01,1.45,2.01,2.5
	c0,1.56-1.19,2.4-2.8,2.4c-0.85,0-1.61-0.18-2.03-0.42c-0.06-0.03-0.08-0.08-0.08-0.16V14.9c0-0.1,0.05-0.13,0.11-0.08
	c0.61,0.4,1.36,0.58,2,0.58c0.77,0,1.09-0.32,1.09-0.76c0-0.35-0.22-0.66-1.21-1.18c-1.39-0.66-1.96-1.34-1.96-2.46
	c0-1.26,0.98-2.3,2.69-2.3c0.84,0,1.46,0.13,1.78,0.27c0.08,0.05,0.1,0.13,0.1,0.19v1.34c0,0.08-0.05,0.13-0.14,0.1
	C17.62,10.34,16.95,10.18,16.32,10.18z M4.25,0.3C1.9,0.3,0,2.2,0,4.55v14.9c0,2.35,1.9,4.25,4.25,4.25h15.5
	c2.35,0,4.25-1.9,4.25-4.25V4.55c0-2.35-1.9-4.25-4.25-4.25H4.25z M4.63,1.3h14.73c2,0,3.63,1.63,3.63,3.63c0,0,0,0,0,0v14.13
	c0.01,2-1.61,3.63-3.61,3.64c0,0-0.01,0-0.01,0H4.63c-2,0-3.63-1.63-3.63-3.63V4.93C1,2.93,2.63,1.3,4.63,1.3z"/>
</svg>
