<?xml version="1.0" encoding="utf-8"?>
<!-- Generator: Adobe Illustrator 24.0.3, SVG Export Plug-In . SVG Version: 6.00 Build 0)  -->
<svg version="1.1" id="Layer_1" xmlns="http://www.w3.org/2000/svg" xmlns:xlink="http://www.w3.org/1999/xlink" x="0px" y="0px"
	 viewBox="0 0 24 24" style="enable-background:new 0 0 24 24;" xml:space="preserve">
<style type="text/css">
	.st0{fill:#FF33CC;}
</style>
<path d="M18.75,23.7H5.25C2.35,23.7,0,21.35,0,18.45V5.55C0,2.65,2.35,0.3,5.25,0.3h13.51c2.9,0,5.25,2.35,5.25,5.25v12.91
	C24,21.35,21.65,23.7,18.75,23.7z"/>
<title>Adobe XD icon</title>
<path class="st0" d="M19.75,0.3H4.25C1.9,0.3,0,2.2,0,4.55v14.9c0,2.35,1.9,4.25,4.25,4.25h15.5c2.35,0,4.25-1.9,4.25-4.25V4.55
	C24,2.2,22.1,0.3,19.75,0.3z M22.99,19.06c0.01,2-1.61,3.63-3.61,3.64c0,0-0.01,0-0.01,0H4.63c-2,0-3.63-1.63-3.63-3.63V4.93
	c0-2,1.63-3.63,3.63-3.63h14.73c2,0,3.63,1.63,3.63,3.63c0,0,0,0,0,0C22.99,4.93,22.99,19.06,22.99,19.06z M9.49,11.25l2.8,5.38
	c0.05,0.08,0.02,0.16-0.06,0.16h-1.74c-0.11,0-0.16-0.03-0.21-0.13c-0.64-1.32-1.29-2.64-1.96-4.06H8.3
	c-0.6,1.34-1.26,2.75-1.9,4.07c-0.05,0.08-0.1,0.11-0.18,0.11H4.57c-0.1,0-0.11-0.08-0.06-0.14l2.74-5.22L4.6,6.14
	C4.54,6.06,4.6,6,4.66,6h1.72c0.1,0,0.14,0.02,0.18,0.11c0.63,1.32,1.27,2.68,1.87,4.01h0.02c0.58-1.32,1.22-2.69,1.84-4
	c0.05-0.08,0.08-0.13,0.18-0.13h1.61c0.08,0,0.11,0.06,0.06,0.14C12.14,6.13,9.49,11.25,9.49,11.25z M12.78,12.88
	c0-2.33,1.55-4.15,4.01-4.15c0.21,0,0.32,0,0.52,0.02V6.1c0-0.06,0.05-0.1,0.1-0.1h1.58c0.08,0,0.1,0.03,0.1,0.08v9.18
	c0,0.27,0,0.61,0.05,0.98c0,0.06-0.02,0.08-0.08,0.11c-0.84,0.4-1.72,0.58-2.56,0.58C14.33,16.94,12.78,15.6,12.78,12.88z
	 M17.31,10.32c-0.14-0.06-0.34-0.1-0.58-0.1c-1.26,0-2.14,0.97-2.14,2.58c0,1.84,0.9,2.58,2.03,2.58c0.24,0,0.5-0.03,0.69-0.11
	V10.32z"/>
<path class="st0" d="M-27.43,11.47"/>
</svg>
