<?xml version="1.0" encoding="utf-8"?>
<!-- Generator: Adobe Illustrator 24.0.3, SVG Export Plug-In . SVG Version: 6.00 Build 0)  -->
<svg version="1.1" id="Layer_1" xmlns="http://www.w3.org/2000/svg" xmlns:xlink="http://www.w3.org/1999/xlink" x="0px" y="0px"
	 viewBox="0 0 24 24" style="enable-background:new 0 0 24 24;" xml:space="preserve">
<style type="text/css">
	.st0{fill:#999999;}
</style>
<title>Apple icon</title>
<path class="st0" d="M7.08,23.55c-0.47-0.32-0.89-0.7-1.24-1.15c-0.38-0.46-0.74-0.95-1.06-1.45C4,19.83,3.4,18.6,2.99,17.31
	c-0.5-1.5-0.74-2.94-0.74-4.35c0-1.57,0.34-2.94,1-4.09c0.49-0.9,1.22-1.65,2.1-2.18C6.2,6.16,7.19,5.87,8.19,5.85
	C8.54,5.85,8.92,5.9,9.32,6c0.29,0.08,0.64,0.21,1.07,0.37c0.55,0.21,0.85,0.34,0.95,0.37c0.32,0.12,0.59,0.17,0.8,0.17
	c0.16,0,0.39-0.05,0.65-0.13c0.15-0.05,0.42-0.14,0.81-0.31c0.39-0.14,0.69-0.26,0.94-0.35c0.37-0.11,0.73-0.21,1.05-0.26
	c0.39-0.06,0.78-0.08,1.15-0.05c0.71,0.05,1.36,0.2,1.94,0.42c1.02,0.41,1.84,1.05,2.46,1.96c-0.26,0.16-0.5,0.35-0.73,0.55
	c-0.49,0.43-0.9,0.94-1.23,1.51c-0.43,0.77-0.65,1.64-0.64,2.52c0.01,1.08,0.29,2.03,0.84,2.86c0.39,0.6,0.9,1.11,1.53,1.54
	c0.31,0.21,0.58,0.35,0.84,0.45c-0.12,0.38-0.25,0.74-0.41,1.1c-0.35,0.81-0.76,1.58-1.25,2.31c-0.43,0.63-0.77,1.1-1.03,1.41
	c-0.4,0.48-0.79,0.84-1.18,1.1c-0.43,0.28-0.93,0.44-1.45,0.44c-0.35,0.01-0.7-0.03-1.03-0.13c-0.29-0.09-0.58-0.2-0.86-0.32
	c-0.29-0.13-0.6-0.25-0.9-0.34c-0.38-0.1-0.77-0.15-1.16-0.15c-0.4,0-0.79,0.05-1.16,0.15c-0.31,0.09-0.61,0.2-0.91,0.33
	c-0.42,0.17-0.69,0.29-0.85,0.34c-0.32,0.1-0.66,0.15-0.99,0.17c-0.52,0-1-0.15-1.49-0.45L7.08,23.55z M13.93,5.09
	c-0.68,0.34-1.33,0.48-1.97,0.44c-0.1-0.65,0-1.31,0.27-2.04c0.24-0.62,0.56-1.18,1-1.68c0.46-0.52,1.01-0.95,1.63-1.26
	c0.66-0.34,1.29-0.52,1.89-0.55c0.08,0.68,0,1.35-0.25,2.07c-0.23,0.64-0.57,1.23-1,1.76c-0.44,0.52-0.98,0.95-1.59,1.26L13.93,5.09
	z"/>
</svg>
