<?xml version="1.0" encoding="utf-8"?>
<!-- Generator: Adobe Illustrator 24.0.3, SVG Export Plug-In . SVG Version: 6.00 Build 0)  -->
<svg version="1.1" id="Layer_1" xmlns="http://www.w3.org/2000/svg" xmlns:xlink="http://www.w3.org/1999/xlink" x="0px" y="0px"
	 viewBox="0 0 50 50" style="enable-background:new 0 0 50 50;" xml:space="preserve">
<style type="text/css">
	.st0{fill:#2BC0D9;}
	.st1{fill:#2D9AE3;}
	.st2{fill:#FFFFFF;}
</style>
<g>
	<circle class="st0" cx="25.5" cy="25.5" r="22"/>
	<path class="st0" d="M25.5,4C37.4,4,47,13.6,47,25.5S37.4,47,25.5,47S4,37.4,4,25.5S13.6,4,25.5,4 M25.5,3C13.1,3,3,13.1,3,25.5
		S13.1,48,25.5,48S48,37.9,48,25.5S37.9,3,25.5,3L25.5,3z"/>
</g>
<g>
	<circle class="st1" cx="28.5" cy="21.1" r="5"/>
</g>
<g>
	<circle class="st0" cx="10.8" cy="19.6" r="2.5"/>
</g>
<g>
	<path class="st2" d="M23.8,17.8c3.4,0,6.2,2.8,6.2,6.2s-2.8,6.2-6.2,6.2s-6.2-2.8-6.2-6.2S20.4,17.8,23.8,17.8 M23.8,15.2
		c-4.9,0-8.8,4-8.8,8.8s4,8.8,8.8,8.8s8.8-4,8.8-8.8S28.7,15.2,23.8,15.2L23.8,15.2z"/>
</g>
<g>
	<path class="st2" d="M30.1,28.7c-0.4,0-0.8,0.1-1.1,0.4L29,29.2c-0.6,0.6-0.6,1.5,0,2.1l3.8,3.8c0.3,0.3,0.7,0.4,1.1,0.4
		s0.8-0.2,1.1-0.4L35,35c0.6-0.6,0.6-1.5,0-2.1l-3.8-3.8C30.9,28.9,30.5,28.7,30.1,28.7L30.1,28.7z"/>
</g>
</svg>
