<?xml version="1.0" encoding="utf-8"?>
<!-- Generator: Adobe Illustrator 24.0.3, SVG Export Plug-In . SVG Version: 6.00 Build 0)  -->
<svg version="1.1" id="Layer_1" xmlns="http://www.w3.org/2000/svg" xmlns:xlink="http://www.w3.org/1999/xlink" x="0px" y="0px"
	 viewBox="0 0 50 50" style="enable-background:new 0 0 50 50;" xml:space="preserve">
<style type="text/css">
	.st0{fill:#2BC0D9;}
	.st1{fill:#FFFFFF;}
	.st2{fill:#2D9AE3;}
</style>
<g>
	<circle class="st0" cx="25.5" cy="25.5" r="22"/>
	<path class="st0" d="M25.5,4C37.4,4,47,13.6,47,25.5S37.4,47,25.5,47S4,37.4,4,25.5S13.6,4,25.5,4 M25.5,3C13.1,3,3,13.1,3,25.5
		S13.1,48,25.5,48S48,37.9,48,25.5S37.9,3,25.5,3L25.5,3z"/>
</g>
<path class="st1" d="M159,63"/>
<g>
	<circle class="st0" cx="15.5" cy="11.4" r="2.5"/>
</g>
<polygon class="st2" points="23.5,11.4 18.5,26.9 28.9,25 23.3,43.6 39.5,18.2 28.1,19.5 32.1,11.4 "/>
<polygon class="st1" points="21,12 16,27.5 26.4,25.6 20.8,44.2 37,18.8 25.6,20.1 29.6,12 "/>
</svg>
