<?xml version="1.0" encoding="utf-8"?>
<!-- Generator: Adobe Illustrator 24.0.3, SVG Export Plug-In . SVG Version: 6.00 Build 0)  -->
<svg version="1.1" id="Layer_1" xmlns="http://www.w3.org/2000/svg" xmlns:xlink="http://www.w3.org/1999/xlink" x="0px" y="0px"
	 viewBox="0 0 24 24" style="enable-background:new 0 0 24 24;" xml:space="preserve">
<style type="text/css">
	.st0{fill:#6F4E37;}
</style>
<title>CoffeeScript icon</title>
<path class="st0" d="M4.64,7.47c2.1,0.53,4.78,0.8,8.01,0.8c3.3,0,5.92-0.27,8.01-0.8c2.23-0.52,3.3-1.22,3.3-1.88
	c0-0.47-0.48-0.93-1.35-1.28c0.2,0.13,0.35,0.35,0.35,0.59c0,0.67-1.01,1.22-3.04,1.68c-1.88,0.41-4.28,0.7-7.2,0.7
	c-2.82,0-5.33-0.29-7.14-0.68c-1.95-0.48-2.97-1-2.97-1.68c0-0.28,0.13-0.52,0.52-0.8C1.91,4.59,1.25,4.99,1.25,5.59
	C1.32,6.27,2.41,6.95,4.64,7.47z M9.33,5.31c2.27-0.2,2.93-1.66,5.59-1.9c1.31-0.1,2.14,0.16,2.23,0.62
	c0.08,0.43-0.57,0.72-1.36,0.78c-1.09,0.11-1.54-0.28-1.63-0.65c-0.81,0.09-0.94,0.43-0.9,0.67c0.09,0.46,1.07,0.92,2.75,0.76
	c1.9-0.15,2.54-0.9,2.38-1.65c-0.2-0.98-1.66-1.8-4.28-1.55c-3.36,0.3-3.34,1.86-5.63,2.05c-0.94,0.09-1.46-0.13-1.55-0.5
	c-0.06-0.37,0.4-0.55,0.94-0.59c0.5-0.05,1.11,0.04,1.4,0.2C9.48,3.44,9.55,3.33,9.53,3.2c-0.1-0.35-0.79-0.5-1.66-0.44
	c-1.7,0.15-1.7,0.91-1.64,1.25C6.4,4.88,7.71,5.46,9.33,5.31z M20.75,9.15c-2.1,0.49-4.78,0.81-8.01,0.81c-3.3,0-5.99-0.34-8.08-0.8
	C2.78,8.68,1.78,8.15,1.43,7.6c0.18,1.23,0.49,2.42,0.89,3.55c-0.48,0.3-0.91,0.67-1.3,1.17C0.31,13.19-0.06,14.3,0,15.42
	c0.07,1.04,0.59,1.99,1.42,2.62c0.87,0.68,1.81,0.88,2.88,0.68c0.41-0.07,0.87-0.28,1.29-0.42c-0.88,0-1.62-0.28-2.36-0.87
	c-0.81-0.56-1.35-1.44-1.49-2.42c-0.2-0.94,0-1.81,0.53-2.58c0.12-0.15,0.25-0.28,0.39-0.4c0.3,0.73,0.62,1.45,0.98,2.12
	c0.81,1.23,1.62,2.3,2.43,3.46c0.35,0.68,0.58,1.35,0.74,2.02c0.54,0.75,1.33,1.28,2.23,1.5c1.15,0.4,2.35,0.58,3.58,0.51h0.13
	c1.25,0.05,2.5-0.12,3.69-0.52c0.86-0.25,1.62-0.77,2.16-1.49h0.07c0.13-0.67,0.35-1.34,0.67-2.02c0.8-1.17,1.62-2.23,2.42-3.46
	c1.1-2.04,1.86-4.25,2.24-6.54C23.57,8.21,22.56,8.74,20.75,9.15z"/>
</svg>
