<?xml version="1.0" encoding="utf-8"?>
<!-- Generator: Adobe Illustrator 24.0.3, SVG Export Plug-In . SVG Version: 6.00 Build 0)  -->
<svg version="1.1" id="Layer_1" xmlns="http://www.w3.org/2000/svg" xmlns:xlink="http://www.w3.org/1999/xlink" x="0px" y="0px"
	 viewBox="0 0 50 50" style="enable-background:new 0 0 50 50;" xml:space="preserve">
<style type="text/css">
	.st0{fill:#2BC0D9;}
	.st1{fill:#FFFFFF;}
	.st2{fill:#2D9AE3;}
</style>
<g>
	<circle class="st0" cx="25.5" cy="25.5" r="22"/>
	<path class="st0" d="M25.5,4C37.4,4,47,13.6,47,25.5S37.4,47,25.5,47S4,37.4,4,25.5S13.6,4,25.5,4 M25.5,3C13.1,3,3,13.1,3,25.5
		S13.1,48,25.5,48S48,37.9,48,25.5S37.9,3,25.5,3L25.5,3z"/>
</g>
<path class="st1" d="M159,63"/>
<g>
	<circle class="st0" cx="15.5" cy="11.4" r="2.5"/>
</g>
<g>
	<path class="st2" d="M41.27,24.87c2.61-3.13,2.04-7.88-1.37-10.27c-3.02-2.12-7.21-1.3-9.58,1.54l-3.86,4.64
		c-0.02,0.03-0.02,0.07,0,0.09l9.02,10.83c0.03,0.03,0.08,0.03,0.11,0L41.27,24.87z"/>
	<path class="st2" d="M22.29,15.86c-2.61-3.13-7.36-3.4-10.3-0.45c-2.61,2.61-2.54,6.91-0.18,9.74l5.45,6.54
		c0.03,0.03,0.08,0.03,0.11,0l9.02-10.83c0.02-0.03,0.02-0.07,0-0.09L22.29,15.86z"/>
	<path class="st2" d="M26.37,20.89l-9.02,10.83c-0.02,0.03-0.02,0.07,0,0.09l9.02,10.83c0.03,0.03,0.08,0.03,0.11,0l9.02-10.83
		c0.02-0.03,0.02-0.07,0-0.09l-9.02-10.83C26.45,20.85,26.4,20.85,26.37,20.89z"/>
</g>
<g>
	<path class="st1" d="M39.99,24.73c2.61-3.13,2.04-7.88-1.37-10.27c-3.02-2.12-7.21-1.3-9.58,1.54l-3.86,4.64
		c-0.02,0.03-0.02,0.07,0,0.09l9.02,10.83c0.03,0.03,0.08,0.03,0.11,0L39.99,24.73z"/>
	<path class="st1" d="M21.02,15.72c-2.61-3.13-7.36-3.4-10.3-0.45c-2.61,2.61-2.54,6.91-0.18,9.74l5.45,6.54
		c0.03,0.03,0.08,0.03,0.11,0l9.02-10.83c0.02-0.03,0.02-0.07,0-0.09L21.02,15.72z"/>
	<path class="st1" d="M25.1,20.75l-9.02,10.83c-0.02,0.03-0.02,0.07,0,0.09l9.02,10.83c0.03,0.03,0.08,0.03,0.11,0l9.02-10.83
		c0.02-0.03,0.02-0.07,0-0.09l-9.02-10.83C25.18,20.71,25.12,20.71,25.1,20.75z"/>
</g>
</svg>
