<?xml version="1.0" encoding="utf-8"?>
<!-- Generator: Adobe Illustrator 24.0.3, SVG Export Plug-In . SVG Version: 6.00 Build 0)  -->
<svg version="1.1" id="Layer_1" xmlns="http://www.w3.org/2000/svg" xmlns:xlink="http://www.w3.org/1999/xlink" x="0px" y="0px"
	 viewBox="0 0 50 50" style="enable-background:new 0 0 50 50;" xml:space="preserve">
<style type="text/css">
	.st0{fill:#CCCCCC;}
</style>
<g>
	<circle class="st0" cx="25.31" cy="46.14" r="3.86"/>
	<circle class="st0" cx="14.07" cy="18.79" r="2.39"/>
	<path class="st0" d="M36.6,15.21h-1.7c-0.85,0-1.54-0.69-1.54-1.54v-1.7c0-0.85,0.69-1.54,1.54-1.54h1.7
		c0.85,0,1.54,0.69,1.54,1.54v1.7C38.14,14.52,37.45,15.21,36.6,15.21z"/>
	<path class="st0" d="M24.91,0l-2.35,4.08c-0.5,0.86,0.12,1.94,1.12,1.94h2.47c0.99,0,1.62-1.08,1.12-1.94L24.91,0z"/>
	<path class="st0" d="M26.82,45.41V30.2c0-0.14,0.06-0.27,0.15-0.37l10.14-10.14c0.1-0.1,0.15-0.23,0.15-0.37v-5.18
		c0-0.29-0.23-0.52-0.52-0.52h-1.62c-0.29,0-0.52,0.23-0.52,0.52v4.33c0,0.14-0.06,0.27-0.15,0.37l-6.83,6.83
		c-0.33,0.33-0.89,0.1-0.89-0.37V3.53c0-0.29-0.23-0.52-0.52-0.52h-1.96c-0.29,0-0.52,0.23-0.52,0.52v29.76v0.47v0.41l-7.99-7.99
		c-0.1-0.1-0.15-0.23-0.15-0.37v-5.78c0-0.29-0.23-0.52-0.52-0.52h-2.49v8.25l10.76,10.76c0.1,0.1,0.15,0.23,0.15,0.37v6.73
		c0,0.29,0.23,0.52,0.52,0.52h2.32c0.33,0,0.58-0.3,0.51-0.63l0,0C26.83,45.48,26.82,45.44,26.82,45.41z"/>
</g>
</svg>
