<?xml version="1.0" encoding="utf-8"?>
<!-- Generator: Adobe Illustrator 24.0.3, SVG Export Plug-In . SVG Version: 6.00 Build 0)  -->
<svg version="1.1" id="Layer_1" xmlns="http://www.w3.org/2000/svg" xmlns:xlink="http://www.w3.org/1999/xlink" x="0px" y="0px"
	 viewBox="0 0 24 24" style="enable-background:new 0 0 24 24;" xml:space="preserve">
<style type="text/css">
	.st0{fill:#FF0000;}
</style>
<title>Git icon</title>
<path class="st0" d="M23.55,10.93L13.07,0.45c-0.6-0.6-1.58-0.6-2.19,0L8.71,2.63l2.76,2.76c0.65-0.22,1.38-0.07,1.89,0.44
	c0.52,0.51,0.66,1.26,0.44,1.9l2.66,2.66c0.65-0.22,1.39-0.08,1.9,0.44c0.72,0.72,0.72,1.88,0,2.6c-0.72,0.72-1.88,0.72-2.6,0
	c-0.54-0.54-0.67-1.34-0.4-2l-2.49-2.48v6.52c0.18,0.09,0.34,0.2,0.49,0.35c0.71,0.72,0.71,1.88,0,2.6c-0.72,0.72-1.89,0.72-2.61,0
	c-0.72-0.72-0.72-1.88,0-2.6c0.18-0.18,0.39-0.32,0.61-0.41V8.84c-0.22-0.09-0.42-0.22-0.6-0.4c-0.55-0.55-0.68-1.34-0.4-2.01
	L7.64,3.7l-7.19,7.18c-0.6,0.61-0.6,1.58,0,2.19l10.48,10.48c0.6,0.6,1.58,0.6,2.19,0l10.43-10.43
	C24.15,12.51,24.15,11.54,23.55,10.93"/>
</svg>
