<?xml version="1.0" encoding="utf-8"?>
<!-- Generator: Adobe Illustrator 24.0.3, SVG Export Plug-In . SVG Version: 6.00 Build 0)  -->
<svg version="1.1" id="Layer_1" xmlns="http://www.w3.org/2000/svg" xmlns:xlink="http://www.w3.org/1999/xlink" x="0px" y="0px"
	 viewBox="0 0 24 24" style="enable-background:new 0 0 24 24;" xml:space="preserve">
<style type="text/css">
	.st0{fill:#66FF00;}
</style>
<title>GreenSock icon</title>
<path class="st0" d="M13.47,23.95c-0.31-0.05-0.64-0.2-0.82-0.36c-0.13-0.13-0.2-0.31-0.2-0.49c0-0.18,0.09-0.44,0.24-0.7
	c0.09-0.15,0.16-0.3,0.21-0.47c0.03-0.11,0.1-0.3,0.15-0.42l0.09-0.21l0.02-1.44c0.01-0.79,0.04-1.53,0.05-1.64
	c0.05-0.33,0.14-0.65,0.25-0.96l0.08-0.21l-0.12-0.07c-0.11-0.07-0.21-0.17-0.58-0.61c-0.46-0.54-1.06-0.84-1.91-0.94
	c-0.28-0.03-0.56-0.05-0.84-0.06c-1.25-0.06-1.97-0.32-2.61-0.95c-0.48-0.47-0.73-1.02-0.83-1.84c-0.14-1.1-0.29-1.66-0.57-2.12
	c-0.07-0.11-0.15-0.22-0.24-0.31l-0.11-0.11l-0.25,0.16c-0.14,0.09-0.33,0.2-0.42,0.26c-0.31,0.17-0.61,0.36-0.9,0.57
	c-0.7,0.51-1.46,1.14-1.88,1.56c-0.19,0.19-0.29,0.27-0.33,0.26c-0.29-0.04-0.07-1.28,0.4-2.21c0.6-1.2,1.59-2.3,2.75-3.05
	c0.95-0.61,2.48-1.46,3.2-1.75c1.26-0.53,2.89-1.1,4.01-1.4c0.24-0.06,0.38-0.12,0.48-0.19c0.22-0.15,0.43-0.22,0.68-0.23
	c0.21,0,0.23-0.01,0.43-0.14c0.23-0.15,0.3-0.16,0.54-0.08l0.15,0.06l0.19-0.13l0.19-0.13l0.27,0.01c0.2,0,0.3-0.01,0.39-0.05
	c0.11-0.05,0.12-0.06,0.15-0.24c0.07-0.41,0.08-0.61,0.04-0.85c-0.06-0.32-0.06-1.58-0.01-1.83c0.06-0.27,0.1-0.32,0.29-0.42
	c0.3-0.15,0.52-0.19,1.03-0.19c0.62,0,0.94,0.08,1.17,0.31c0.21,0.21,0.25,0.68,0.14,1.8c-0.06,0.64-0.07,0.82-0.06,1.24
	c0.01,0.27,0.03,0.52,0.04,0.56c0.02,0.07,0.03,0.07,0.26,0.07c0.22,0,0.26,0.01,0.47,0.12c0.2,0.11,0.36,0.23,0.39,0.32
	c0.01,0.02,0.04,0.02,0.1,0c0.12-0.03,0.23,0,0.31,0.11c0.05,0.07,0.08,0.08,0.2,0.08c0.16,0,0.22,0.04,0.35,0.23
	c0.06,0.09,0.15,0.16,0.25,0.2c0.22,0.11,0.51,0.41,0.63,0.65c0.17,0.36,0.21,0.78,0.1,1.15c-0.04,0.14-0.04,0.14,0.04,0.28
	c0.17,0.29,0.24,0.65,0.17,0.95l-0.04,0.18l0.12,0.12c0.58,0.58,0.5,1.53-0.22,2.38c-0.08,0.09-0.17,0.23-0.2,0.32
	c-0.14,0.36-0.29,0.62-0.5,0.83l-0.2,0.21h-0.21c-0.21,0-0.5-0.07-0.68-0.16c-0.08-0.04-0.08-0.04-0.07,0.01
	c0.05,0.17,0.16,0.87,0.2,1.26c0.06,0.59,0.04,1.46-0.04,1.83c-0.06,0.27-0.16,0.54-0.3,0.78c-0.08,0.13-0.08,0.16-0.07,0.3
	c0.02,0.22-0.03,0.58-0.11,0.81c-0.1,0.28-0.14,0.41-0.17,0.55c-0.02,0.12-0.02,0.12,0.07,0.12c0.11,0,0.17,0.07,0.17,0.2
	c0,0.06-0.05,0.37-0.11,0.7c-0.17,0.91-0.18,1.01-0.18,1.9c0,0.91,0,0.9,0.2,1.04l0.46,0.3c0.4,0.27,0.83,0.49,1.28,0.66
	c0.65,0.26,0.74,0.32,0.74,0.54c0,0.09-0.02,0.13-0.1,0.21c-0.25,0.24-0.74,0.3-1.74,0.19c-0.52-0.05-1.03-0.07-1.55-0.08
	c-1.36-0.02-1.57-0.07-1.75-0.41c-0.1-0.19-0.08-0.45,0.06-0.87c0.06-0.18,0.12-0.37,0.16-0.56c0.09-0.45,0.03-0.99-0.19-1.6
	l-0.18-0.52c-0.19-0.53-0.29-1.49-0.18-1.71c0.02-0.04,0.05-0.05,0.15-0.04l0.12,0.01l0.1-0.2c0.08-0.16,0.16-0.26,0.38-0.49
	l0.28-0.29l-0.01-0.18c-0.01-0.17-0.24-1.03-0.28-1.02c-0.01,0-0.07,0.09-0.14,0.19c-0.17,0.26-0.55,0.66-0.77,0.8
	c-0.09,0.06-0.17,0.14-0.17,0.16c0,0.1-0.09,0.31-0.2,0.45c-0.11,0.14-0.11,0.16-0.1,0.29c0.02,0.18-0.03,0.77-0.1,1.08
	c-0.06,0.23-0.15,0.45-0.26,0.67c-0.27,0.56-0.47,1.06-0.52,1.29c-0.04,0.22-0.06,0.45-0.07,0.67c-0.01,0.26-0.04,0.52-0.06,0.58
	c-0.03,0.08-0.03,0.13,0,0.25c0.02,0.08,0.03,0.27,0.03,0.41c0,0.2,0.01,0.33,0.07,0.56c0.1,0.4,0.12,0.65,0.07,0.8
	c-0.03,0.09-0.06,0.13-0.17,0.18C14.49,23.95,13.83,24.01,13.47,23.95z M14.42,23.63c0.14-0.04,0.25-0.16,0.25-0.26
	c0-0.05-0.04-0.18-0.09-0.31c-0.09-0.23-0.25-0.84-0.25-0.94c0-0.05,0-0.06,0.09-0.01l0.09,0.05l0-0.11c-0.01-0.1-0.03-0.2-0.06-0.3
	c-0.07-0.22-0.08-0.23-0.55-0.25l-0.32-0.02l-0.11,0.11c-0.07,0.07-0.12,0.14-0.17,0.22c-0.05,0.1-0.07,0.25-0.04,0.29
	c0.01,0.01,0.09,0,0.17-0.02c0.05-0.02,0.1-0.02,0.15-0.03c0,0-0.09,0.07-0.19,0.15c-0.47,0.35-0.63,0.56-0.63,0.84
	c0,0.29,0.27,0.51,0.69,0.57C13.72,23.66,14.28,23.67,14.42,23.63z M20.78,23.16c0.12-0.14,0.1-0.28-0.05-0.45
	c-0.09-0.09-0.18-0.16-0.29-0.22c-0.11-0.06-0.22-0.12-0.33-0.19c-0.09-0.06-0.36-0.22-0.61-0.36c-0.18-0.1-0.35-0.2-0.53-0.31
	l-0.07-0.06V20.5c0-1.06,0-1.07-0.06-1.06c-0.27,0.08-0.73,0.11-1.3,0.1l-0.62-0.01l0.09,0.22c0.17,0.42,0.25,0.97,0.25,1.61
	c0,0.24-0.01,0.33-0.07,0.49c-0.03,0.08-0.06,0.17-0.09,0.25c-0.01,0.03,0.03,0.06,0.19,0.11c0.11,0.03,0.29,0.07,0.39,0.08
	l0.18,0.02l-0.02,0.18c-0.02,0.2,0,0.42,0.05,0.49c0.03,0.04,0.15,0.05,0.69,0.08c0.41,0.02,0.86,0.06,1.21,0.11
	c0.31,0.05,0.63,0.08,0.73,0.08C20.69,23.25,20.71,23.25,20.78,23.16z M14.53,21.33c0.02-0.01,0.04-0.22,0.05-0.47
	c0.03-0.7,0.06-0.8,0.41-1.59c0.29-0.64,0.44-1.25,0.43-1.67l-0.01-0.25l-0.11,0.11c-0.23,0.23-0.07-0.13,0.2-0.45
	c0.2-0.24,0.27-0.38,0.31-0.59c0.01-0.09,0.05-0.13,0.18-0.23c0.5-0.39,0.87-0.87,1.1-1.46c0.06-0.14,0.2-0.62,0.32-1.07
	c0.22-0.83,0.33-1.18,0.44-1.33c0.04-0.06,0.06-0.07,0.05-0.03c-0.06,0.23-0.08,0.33-0.13,0.64c-0.03,0.19-0.09,0.56-0.13,0.83
	c-0.08,0.53-0.16,0.88-0.26,1.14l-0.07,0.18l0.19,0.48c0.19,0.5,0.28,0.86,0.3,1.21l0.01,0.19L17.64,17
	c-0.2,0.04-0.38,0.15-0.5,0.31c-0.14,0.19-0.21,0.35-0.17,0.38c0.01,0.01,0.21,0.05,0.42,0.08c0.34,0.04,0.47,0.04,0.92,0.01
	c0.19-0.01,0.39-0.03,0.58-0.06c0.04-0.01,0.08-0.1,0.15-0.32c0.16-0.51,0.19-0.69,0.17-1.05l-0.02-0.32l0.08-0.1
	c0.19-0.24,0.34-0.68,0.4-1.19c0.08-0.63-0.06-1.94-0.32-3.06c-0.12-0.53-0.17-0.85-0.17-1.09v-0.21l-0.19,0.02
	c-0.69,0.08-1.52,0.06-2.03-0.05C16.7,10.3,16,10.1,15.85,10.03l-0.12-0.05l-0.02,0.14c-0.01,0.08-0.02,0.15-0.04,0.23
	c-0.02,0.09-0.01,0.1,0.13,0.25c0.18,0.18,0.24,0.28,0.24,0.4c0,0.07-0.05,0.14-0.26,0.37c-0.16,0.17-0.36,0.35-0.52,0.45L15,11.97
	l-0.11,0.38c-0.39,1.39-0.47,2.65-0.21,3.55l0.06,0.23l-0.12,0.16c-0.47,0.59-0.75,1.04-0.79,1.29c-0.01,0.05-0.05,0.22-0.09,0.37
	c-0.1,0.39-0.18,0.95-0.21,1.57c-0.03,0.51-0.06,1.03-0.1,1.54l-0.02,0.15l0.19,0.06c0.11,0.03,0.27,0.07,0.37,0.09
	C14.15,21.37,14.48,21.37,14.53,21.33L14.53,21.33z M18.32,19.19c0.3-0.02,0.58-0.07,0.64-0.11c0.02-0.02,0.05-0.1,0.06-0.18
	l0.02-0.15l-0.24,0.05c-0.19,0.04-0.38,0.06-0.58,0.08c-0.46,0.02-0.92,0.01-1.38-0.04c-0.15-0.02-0.15-0.02-0.1,0.18
	c0.04,0.15,0.05,0.15,0.44,0.18C17.44,19.22,17.81,19.22,18.32,19.19z M18.06,18.51c0.4-0.03,0.89-0.12,0.99-0.17
	c0.03-0.02,0.06-0.07,0.07-0.14l0.04-0.21l0.02-0.1l-0.1,0.02c-0.43,0.09-0.76,0.12-1.42,0.12c-0.64,0-0.71-0.01-0.88-0.06
	c-0.07-0.03-0.14-0.04-0.21-0.05c-0.03,0.02-0.03,0.24,0,0.4c0.01,0.09,0.03,0.11,0.12,0.14C16.99,18.53,17.49,18.55,18.06,18.51
	L18.06,18.51z M10.81,14.98c1-0.29,2.31-1.14,3.38-2.2c0.35-0.35,0.39-0.4,0.44-0.55l0.06-0.2c0.01-0.02-0.06-0.05-0.14-0.06
	c-0.22-0.05-0.38-0.17-0.38-0.29c0-0.07-0.04-0.13-0.15-0.26c-0.19-0.21-0.23-0.3-0.25-0.5l-0.02-0.16l-0.22-0.16
	c-0.12-0.09-0.56-0.33-1.03-0.56c-0.35-0.17-0.7-0.36-1.04-0.56c-0.39-0.26-0.65-0.58-0.8-0.95C10.64,8.47,10.61,8.4,10.6,8.4
	c-0.03,0-0.91,0.85-1.29,1.25c-0.92,0.98-1.56,1.82-1.96,2.61c-0.1,0.19-0.21,0.43-0.24,0.51l-0.06,0.16l0.07,0.26
	c0.04,0.14,0.13,0.37,0.2,0.51c0.25,0.48,0.54,0.78,1.02,1.02c0.52,0.26,0.98,0.35,1.75,0.34C10.51,15.05,10.63,15.04,10.81,14.98
	L10.81,14.98z M2.92,11.56c0.66-0.58,1.56-1.22,2.67-1.88c0.73-0.43,3.53-1.84,4.83-2.41c0.23-0.11,0.45-0.2,0.47-0.22
	c0.02-0.01,0.09-0.18,0.15-0.37c0.28-0.87,0.41-1.04,0.91-1.15c0.06-0.01,0.08-0.03,0.08-0.1c0-0.11,0.08-0.37,0.15-0.49
	c0.05-0.09,0.05-0.09,0.01-0.08c-0.03,0.01-0.19,0.06-0.36,0.11C9.44,5.65,7.35,6.56,5.56,7.7c-1.92,1.22-3.02,2.68-3.34,4.43
	l-0.02,0.13l0.23-0.23C2.55,11.9,2.77,11.69,2.92,11.56L2.92,11.56z M20.6,11.89c0.19-0.1,0.49-0.55,0.6-0.9
	c0.03-0.13,0.1-0.24,0.18-0.34c0.29-0.32,0.53-0.9,0.53-1.3c0-0.62-0.35-0.86-0.86-0.59c-0.06,0.03-0.12,0.06-0.13,0.05
	c-0.03-0.03,0.12-0.17,0.29-0.28c0.23-0.15,0.28-0.24,0.28-0.57c0-0.27-0.07-0.49-0.23-0.73c-0.07-0.11-0.1-0.18-0.09-0.22
	l0.07-0.26c0.1-0.35,0.06-0.74-0.09-1c-0.23-0.39-0.51-0.57-0.89-0.6l-0.23-0.02l0.13,0.15c0.39,0.43,0.58,0.96,0.51,1.42
	c-0.04,0.23-0.08,0.28-0.3,0.37l-0.13,0.05l0.01,0.18c0.03,0.3-0.02,0.51-0.21,0.91c-0.09,0.2-0.16,0.38-0.16,0.4
	c0.02,0.07,0.28,0.19,0.48,0.24l0.2,0.05l-0.12,0.04c-0.16,0.05-0.2,0.13-0.2,0.4c0,0.24,0.03,0.35,0.22,0.62
	c0.08,0.12,0.14,0.24,0.14,0.31c0.01,0.11,0.01,0.12-0.08,0.15c-0.1,0.03-0.21,0.04-0.31,0.05c-0.37,0.02-0.4,0.03-0.56,0.19
	c-0.15,0.14-0.15,0.15-0.15,0.31c0,0.22,0.08,0.64,0.13,0.7c0.06,0.07,0.44,0.26,0.58,0.28C20.35,11.96,20.48,11.95,20.6,11.89z
	 M15.19,11.6c0.24-0.19,0.43-0.37,0.53-0.53c0.06-0.1,0.07-0.12,0.04-0.2c-0.05-0.13-0.41-0.45-0.61-0.55
	c-0.13-0.06-0.27-0.1-0.42-0.12l-0.25-0.03l-0.15-0.19c-0.31-0.39-0.49-0.69-0.74-1.28c-0.22-0.5-0.41-0.8-0.71-1.08
	c-0.12-0.12-0.22-0.22-0.21-0.22c0.01,0,0.16,0.07,0.33,0.16c0.29,0.15,0.32,0.16,0.45,0.15c0.47-0.06,0.87-0.59,1.02-1.34
	c0.04-0.21,0.13-0.43,0.22-0.56c0-0.01,0.18,0.11,0.4,0.27c0.53,0.38,0.65,0.44,0.95,0.45c0.2,0.01,0.31-0.01,0.67-0.09
	c0.76-0.19,1.59-0.26,2.1-0.19c0.28,0.04,0.69,0.16,1,0.31c0.3,0.14,0.36,0.15,0.46,0.06c0.08-0.07,0.08-0.08,0.08-0.34
	c0-0.39-0.14-0.8-0.36-1.05c-0.11-0.13-0.42-0.34-0.72-0.5c-0.11-0.06-0.22-0.12-0.33-0.18c-0.14-0.08-0.31-0.07-0.75,0.04
	c-0.51,0.14-0.65,0.13-1.24-0.02c-0.5-0.13-0.53-0.13-1.02-0.05c-0.26,0.04-0.92,0.02-1.14-0.04c-0.11-0.03-0.22-0.06-0.32-0.1
	c-0.19-0.07-0.52-0.08-0.82-0.03c-0.6,0.11-1.05,0.43-1.22,0.87c-0.08,0.22-0.07,0.33,0.04,0.4c0.18,0.11,0.42,0.42,0.42,0.54
	c0,0.01-0.06-0.04-0.12-0.11c-0.17-0.17-0.32-0.25-0.5-0.25c-0.24,0.01-0.45,0.15-0.55,0.36c-0.05,0.14-0.1,0.28-0.13,0.42
	c-0.11,0.4-0.21,0.61-0.41,0.89c-0.19,0.25-0.21,0.37-0.15,0.65c0.16,0.72,0.45,1.01,1.64,1.69c0.62,0.35,0.95,0.55,1.18,0.73
	c0.18,0.13,0.18,0.14,0.17,0.24c-0.04,0.23,0.11,0.49,0.41,0.69c0.07,0.05,0.12,0.11,0.12,0.14c0,0.07,0.2,0.17,0.34,0.17
	C14.96,11.76,15.02,11.73,15.19,11.6L15.19,11.6z M20,10.28c0.45,0.01,0.48-0.02,0.24-0.3c-0.25-0.3-0.32-0.53-0.23-0.79l0.04-0.1
	l-0.16-0.08c-0.05-0.03-0.11-0.05-0.16-0.07c-0.03,0.1-0.05,0.21-0.08,0.31c-0.06,0.24-0.13,0.86-0.13,1.12
	c0,0.02,0.04,0.01,0.1-0.03C19.71,10.28,19.76,10.28,20,10.28z M18.49,10.26c0.27-0.02,0.56-0.04,0.63-0.05l0.13-0.02l0.02-0.45
	c0.02-0.64,0.11-1.02,0.39-1.62c0.2-0.43,0.28-0.81,0.24-1.09c-0.02-0.12-0.02-0.13-0.19-0.2c-0.3-0.12-0.61-0.2-0.93-0.25
	c-0.31-0.05-1.21-0.02-1.56,0.05c-0.14,0.03-0.4,0.08-0.57,0.12c-0.43,0.1-0.65,0.09-0.98-0.05c-0.32-0.14-0.52-0.27-0.72-0.45
	c-0.15-0.14-0.16-0.15-0.21-0.1c-0.03,0.03-0.05,0.14-0.06,0.37c-0.01,0.35-0.07,0.53-0.22,0.78c-0.03,0.05-0.06,0.1-0.09,0.16
	c0,0.01,0.12,0.15,0.26,0.3c0.5,0.52,0.74,0.65,1.14,0.62c0.13-0.01,0.22-0.01,0.22,0.01c0,0.03-0.25,0.23-0.36,0.29
	c-0.05,0.02-0.06,0.05-0.05,0.11l0.06,0.41c0.04,0.24,0.06,0.34,0.1,0.38c0.09,0.08,0.58,0.33,0.88,0.45
	c0.4,0.16,0.62,0.22,0.92,0.25C17.94,10.29,17.94,10.29,18.49,10.26z M15.26,9.83c0.01-0.02-0.02-0.24-0.07-0.5
	c-0.06-0.36-0.1-0.48-0.14-0.52c-0.03-0.02-0.17-0.13-0.32-0.23c-0.19-0.14-0.37-0.29-0.54-0.45l-0.27-0.26l-0.14,0.07l-0.15,0.08
	c0.01,0.06,0.03,0.12,0.06,0.18c0.04,0.09,0.13,0.32,0.19,0.51c0.16,0.49,0.29,0.72,0.62,1.15l0.12,0.16l0.23,0.04
	c0.13,0.02,0.26,0.05,0.29,0.06c0.06,0.02,0.06,0.01,0.08-0.11C15.23,9.94,15.24,9.88,15.26,9.83L15.26,9.83z M20.2,4.97
	c0.2-0.02,0.23-0.05,0.15-0.14c-0.05-0.05-0.18-0.06-0.28-0.01C20,4.85,19.99,4.84,19.88,4.73c-0.11-0.12-0.12-0.12-0.25-0.11
	c-0.12,0.01-0.14,0.01-0.16-0.04c-0.05-0.08-0.11-0.16-0.18-0.23c-0.09-0.1-0.2-0.18-0.33-0.23c-0.24-0.09-0.38-0.08-0.61,0.05
	c-0.67,0.36-0.64,0.36-1.28,0.2c-0.6-0.15-1.05-0.31-1.2-0.41c-0.12-0.08-0.38-0.17-0.59-0.2c-0.16-0.02-0.26,0.01-0.42,0.14
	l-0.08,0.07l0.07,0.13c0.1,0.18,0.09,0.19-0.06,0.06c-0.16-0.14-0.36-0.23-0.48-0.23c-0.09,0-0.35,0.12-0.39,0.17
	C13.91,4.1,14,4.12,14.1,4.13c0.11,0.01,0.27,0.05,0.38,0.09c0.27,0.12,0.41,0.15,0.66,0.18c0.27,0.03,0.77-0.01,0.83-0.05
	c0.03-0.03,0.12-0.03,0.3-0.01c0.24,0.02,0.34,0.04,0.9,0.19c0.33,0.09,0.56,0.08,0.95-0.03c0.18-0.05,0.41-0.1,0.5-0.11
	c0.16-0.02,0.19-0.01,0.44,0.1c0.4,0.18,0.61,0.3,0.73,0.4C19.91,5,19.92,5,20.2,4.97L20.2,4.97z M17.98,4.29l0.24-0.12l0-0.24
	c0-0.17-0.01-0.33-0.02-0.49l-0.02-0.25l-0.24,0.18c-0.14,0.11-0.28,0.19-0.34,0.2c-0.17,0.03-1.02,0-1.1-0.04
	c-0.1-0.08-0.2-0.16-0.29-0.26l-0.22-0.22l0,0.13c0,0.07-0.01,0.19-0.02,0.27c-0.02,0.14-0.02,0.14,0.13,0.33
	c0.08,0.11,0.15,0.2,0.15,0.21c0,0.08,1.13,0.43,1.38,0.43C17.7,4.41,17.81,4.37,17.98,4.29z M17.52,3.4
	c0.28-0.05,0.42-0.26,0.52-0.77c0.11-0.55,0.17-1.42,0.11-1.8c-0.05-0.33-0.42-0.49-1.14-0.46c-0.44,0.01-0.63,0.06-0.78,0.19
	c-0.09,0.08-0.1,0.09-0.14,0.46c-0.08,0.71,0.04,1.72,0.24,2.11c0.1,0.18,0.18,0.25,0.36,0.28C16.92,3.43,17.35,3.43,17.52,3.4z"/>
</svg>
