<?xml version="1.0" encoding="utf-8"?>
<!-- Generator: Adobe Illustrator 24.0.3, SVG Export Plug-In . SVG Version: 6.00 Build 0)  -->
<svg version="1.1" id="Layer_1" xmlns="http://www.w3.org/2000/svg" xmlns:xlink="http://www.w3.org/1999/xlink" x="0px" y="0px"
	 viewBox="0 0 24 24" style="enable-background:new 0 0 24 24;" xml:space="preserve">
<style type="text/css">
	.st0{fill:#006699;}
</style>
<title>jQuery icon</title>
<path class="st0" d="M1.53,5.87c-2.12,3.05-1.86,7.02-0.24,10.26c0.04,0.08,0.08,0.15,0.12,0.23c0.02,0.05,0.05,0.1,0.08,0.15
	c0.01,0.03,0.03,0.06,0.05,0.08c0.03,0.05,0.05,0.1,0.08,0.15l0.16,0.26c0.03,0.05,0.06,0.1,0.09,0.15
	c0.05,0.09,0.12,0.19,0.18,0.28c0.03,0.04,0.05,0.08,0.08,0.12c0.1,0.15,0.2,0.3,0.31,0.44c0.08,0.11,0.16,0.21,0.24,0.32
	c0.03,0.04,0.06,0.08,0.09,0.11l0.22,0.27c0.03,0.03,0.05,0.07,0.08,0.1c0.1,0.12,0.2,0.23,0.31,0.35c0,0,0,0,0.01,0.01
	c0.13,0.16,0.27,0.31,0.42,0.44c0.08,0.08,0.16,0.16,0.25,0.24l0.1,0.1c0.11,0.1,0.22,0.21,0.34,0.31c0,0,0,0,0.01,0l0.06,0.05
	c0.1,0.09,0.2,0.18,0.31,0.26l0.12,0.1c0.09,0.07,0.17,0.13,0.26,0.2l0.14,0.1c0.09,0.07,0.19,0.14,0.29,0.21
	c0.03,0.02,0.07,0.05,0.11,0.07l0.03,0.02l0.28,0.18l0.12,0.08c0.15,0.09,0.29,0.18,0.44,0.27c0.04,0.02,0.08,0.04,0.12,0.07
	c0.11,0.06,0.22,0.12,0.33,0.18c0.06,0.03,0.12,0.06,0.18,0.09c0.07,0.04,0.15,0.08,0.23,0.12c0.02,0.01,0.04,0.01,0.06,0.02
	c0.03,0.01,0.06,0.03,0.1,0.05c0.12,0.06,0.24,0.12,0.38,0.17c0.02,0.01,0.05,0.02,0.08,0.03c0.14,0.06,0.29,0.12,0.44,0.18
	c0.03,0.01,0.07,0.03,0.1,0.04c0.14,0.05,0.27,0.1,0.41,0.15l0.05,0.02c0.15,0.05,0.3,0.1,0.46,0.15c0.04,0.01,0.07,0.02,0.11,0.03
	c0.16,0.05,0.31,0.1,0.47,0.14c10.26,1.87,13.24-6.17,13.24-6.17c-2.51,3.26-6.95,4.12-11.16,3.16c-0.16-0.04-0.31-0.09-0.47-0.13
	c-0.19-0.06-0.38-0.12-0.57-0.18l-0.06-0.02c-0.14-0.05-0.27-0.1-0.4-0.15c-0.04-0.01-0.07-0.03-0.11-0.04
	c-0.15-0.06-0.29-0.12-0.43-0.18c-0.03-0.01-0.06-0.02-0.09-0.04c-0.12-0.06-0.24-0.11-0.36-0.17c-0.04-0.02-0.07-0.03-0.11-0.05
	c-0.09-0.04-0.19-0.09-0.28-0.14c-0.06-0.03-0.13-0.06-0.19-0.1c-0.11-0.06-0.23-0.12-0.34-0.19c-0.03-0.02-0.07-0.04-0.11-0.07
	c-0.15-0.09-0.29-0.18-0.44-0.27c-0.04-0.02-0.08-0.05-0.12-0.08c-0.11-0.07-0.21-0.13-0.31-0.21c-0.03-0.02-0.07-0.05-0.1-0.07
	c-0.1-0.07-0.2-0.14-0.29-0.21c-0.04-0.03-0.09-0.07-0.13-0.1c-0.09-0.07-0.18-0.14-0.26-0.21l-0.12-0.09
	c-0.11-0.09-0.22-0.19-0.33-0.28c-0.01-0.01-0.02-0.02-0.04-0.03l-0.35-0.32l-0.1-0.09c-0.08-0.08-0.17-0.16-0.25-0.25l-0.1-0.1
	c-0.11-0.11-0.21-0.21-0.31-0.32l-0.01-0.02c-0.11-0.12-0.21-0.23-0.31-0.35c-0.03-0.03-0.05-0.06-0.08-0.1l-0.23-0.28
	c-0.12-0.15-0.23-0.3-0.34-0.45c-2.33-3.19-3.18-7.59-1.31-11.2 M8.12,3.31c-1.54,2.21-1.45,5.16-0.25,7.5
	c0.2,0.39,0.42,0.77,0.68,1.13c0.23,0.33,0.48,0.72,0.79,0.99c0.11,0.12,0.22,0.24,0.34,0.36l0.09,0.09
	c0.11,0.11,0.23,0.22,0.35,0.32l0.02,0.01c0.13,0.12,0.27,0.23,0.41,0.34c0.03,0.02,0.06,0.05,0.1,0.07
	c0.14,0.11,0.28,0.21,0.43,0.31l0.02,0.01c0.06,0.05,0.13,0.09,0.2,0.13c0.03,0.02,0.06,0.04,0.09,0.06
	c0.11,0.07,0.21,0.13,0.32,0.2c0.02,0.01,0.03,0.02,0.05,0.02c0.09,0.06,0.19,0.11,0.28,0.16c0.03,0.02,0.06,0.03,0.1,0.05
	c0.07,0.03,0.13,0.07,0.2,0.1l0.03,0.01c0.14,0.07,0.27,0.13,0.41,0.19c0.03,0.01,0.06,0.02,0.09,0.04
	c0.11,0.05,0.22,0.09,0.34,0.14c0.05,0.02,0.1,0.04,0.14,0.05c0.1,0.04,0.21,0.07,0.31,0.11l0.14,0.05c0.15,0.05,0.29,0.1,0.45,0.13
	c7.92,1.31,9.75-4.79,9.75-4.79c-1.65,2.38-4.85,3.51-8.25,2.62c-0.15-0.04-0.3-0.08-0.45-0.13c-0.05-0.01-0.09-0.03-0.14-0.04
	c-0.1-0.04-0.21-0.07-0.31-0.11l-0.14-0.05c-0.11-0.05-0.23-0.09-0.34-0.14c-0.03-0.02-0.06-0.02-0.09-0.04
	c-0.14-0.06-0.28-0.12-0.42-0.19l-0.21-0.11l-0.12-0.06c-0.09-0.05-0.18-0.1-0.27-0.15c-0.02-0.01-0.04-0.02-0.06-0.03
	c-0.11-0.07-0.22-0.13-0.32-0.2c-0.03-0.02-0.06-0.04-0.1-0.06l-0.21-0.14c-0.14-0.1-0.28-0.21-0.43-0.31
	c-0.03-0.03-0.06-0.05-0.09-0.08c-1.5-1.18-2.68-2.79-3.24-4.61C8.22,5.38,8.35,3.25,9.37,1.53 M13.66,1.38
	c-0.91,1.33-0.99,2.99-0.37,4.45c0.66,1.56,2.02,2.78,3.6,3.36c0.07,0.02,0.13,0.05,0.19,0.07l0.09,0.03
	c0.09,0.03,0.18,0.06,0.28,0.08c4.38,0.84,5.56-2.25,5.88-2.7c-1.04,1.5-2.79,1.86-4.93,1.33c-0.17-0.04-0.35-0.1-0.52-0.16
	c-0.21-0.07-0.42-0.16-0.62-0.25c-0.38-0.18-0.74-0.41-1.08-0.66c-1.92-1.45-3.11-4.23-1.86-6.49"/>
</svg>
