<?xml version="1.0" encoding="utf-8"?>
<!-- Generator: Adobe Illustrator 24.0.3, SVG Export Plug-In . SVG Version: 6.00 Build 0)  -->
<svg version="1.1" id="Layer_1" xmlns="http://www.w3.org/2000/svg" xmlns:xlink="http://www.w3.org/1999/xlink" x="0px" y="0px"
	 viewBox="0 0 24 24" style="enable-background:new 0 0 24 24;" xml:space="preserve">
<style type="text/css">
	.st0{fill:#66AE55;}
</style>
<title>MongoDB icon</title>
<path class="st0" d="M17.18,9.52c-1.26-5.56-4.24-7.39-4.56-8.09C12.27,0.94,11.89,0,11.89,0c0,0.02,0,0.03-0.01,0.05v0.01h0
	c0,0.02,0,0.02,0,0.04v0.02h0c0,0.01,0,0.02,0,0.03v0.03h0c0,0.01,0,0.02,0,0.03v0.02h0c0,0.01,0,0.02,0,0.02v0.02h0
	c0,0.01,0,0.02,0,0.03v0c0,0.02-0.01,0.03-0.01,0.05v0.01h0c0,0,0,0.01,0,0.01v0.02h0V0.4h-0.01v0.02h-0.01v0.02h0v0.02h0v0.02
	h-0.01v0.01h0V0.5h0v0.01H11.8v0.01h0v0.01h0c0,0,0,0,0,0v0.01h0c0,0,0,0,0,0.01v0.01h0c0,0,0,0.01,0,0.01
	c0,0.01-0.01,0.01-0.01,0.02v0c0,0,0,0-0.01,0.01v0.01h0v0.01h-0.01v0.01h0v0.01h-0.01v0.01h0v0h0v0.01h0v0.01h0v0.01h-0.01V0.7h0
	v0.01h-0.01v0.01h0v0.01h-0.01v0.01h0v0.01h0v0.01H11.7v0.01h0v0.01h-0.01v0.01h0v0.01h-0.01v0h0V0.8h-0.01v0h0v0.01h0v0h0v0.01
	h-0.01v0.01h0l0,0v0h0c0,0,0,0,0,0v0h0c0,0,0,0,0,0.01v0h0c-0.01,0.01-0.01,0.01-0.01,0.02v0c0,0-0.01,0.01-0.01,0.01v0h0
	c0,0,0,0,0,0v0h0l0,0v0h0c0,0,0,0,0,0v0h0l0,0v0h0c0,0,0,0,0,0v0h0c0,0,0,0,0,0v0.01h0v0h0v0.01h0v0.01h-0.01V0.93h-0.01v0h0v0.01
	h-0.01v0.01h-0.01v0h0v0.01h0v0h0v0.01h-0.01v0h0v0.01h-0.01v0h0v0h-0.01V1h0v0h-0.01v0h0v0h0v0H11.5v0.01h0v0h-0.01v0h0v0.01h-0.01
	v0h-0.01v0h0v0h0v0.01h0v0h-0.01v0h0v0h-0.01v0.01h0v0h-0.01v0.01h0v0h-0.01V1.1h0v0h0v0h-0.01v0h0v0.01h-0.01v0h0c0,0,0,0,0,0v0h0
	l0,0c0,0,0,0,0,0v0.01h0v0h0v0h0v0h0l0,0v0h0l0,0v0h0c-0.01,0.01-0.01,0.01-0.01,0.02c0,0-0.01,0.01-0.01,0.01
	c-0.01,0.01-0.03,0.02-0.04,0.03c-0.01,0-0.02,0.01-0.02,0.02v0h0c-0.02,0.01-0.03,0.02-0.05,0.04v0c-0.02,0.02-0.05,0.04-0.07,0.06
	v0h0c-0.06,0.05-0.12,0.1-0.19,0.16v0h0c-0.17,0.15-0.37,0.34-0.6,0.57l-0.02,0.02l0,0C9,3.49,6.86,6.43,6.63,11.16
	c-0.02,0.39-0.02,0.77,0.01,1.14v0.01c0.11,1.87,0.7,3.46,1.43,4.76v0c0.29,0.52,0.61,0.99,0.93,1.41v0
	c1.1,1.45,2.23,2.32,2.51,2.53c0.44,1.02,0.4,2.78,0.4,2.78L12.55,24c0,0-0.13-1.7,0.05-2.52c0.06-0.26,0.19-0.48,0.35-0.66
	c0.11-0.08,0.42-0.3,0.8-0.65c0.02-0.02,0.03-0.04,0.04-0.05C15.31,18.7,18.15,15.21,17.18,9.52z"/>
</svg>
