<?xml version="1.0" encoding="utf-8"?>
<!-- Generator: Adobe Illustrator 24.0.3, SVG Export Plug-In . SVG Version: 6.00 Build 0)  -->
<svg version="1.1" id="Layer_1" xmlns="http://www.w3.org/2000/svg" xmlns:xlink="http://www.w3.org/1999/xlink" x="0px" y="0px"
	 viewBox="0 0 24 24" style="enable-background:new 0 0 24 24;" xml:space="preserve">
<style type="text/css">
	.st0{fill:#FF9966;}
</style>
<title>MySQL icon</title>
<path class="st0" d="M16.41,5.68c-0.11,0-0.19,0.01-0.27,0.03v0.01h0.01c0.05,0.1,0.15,0.18,0.21,0.27c0.05,0.11,0.1,0.21,0.15,0.32
	l0.01-0.01c0.09-0.07,0.14-0.17,0.14-0.33c-0.04-0.05-0.05-0.09-0.08-0.14C16.55,5.76,16.46,5.73,16.41,5.68L16.41,5.68z
	 M5.77,18.87H4.84c-0.03-1.56-0.12-3.03-0.27-4.41H4.57l-1.41,4.41H2.45l-1.4-4.41H1.04c-0.1,1.32-0.17,2.79-0.19,4.41H0
	c0.05-1.97,0.19-3.81,0.41-5.53h1.15l1.34,4.06H2.9l1.35-4.06h1.1C5.59,15.36,5.73,17.2,5.77,18.87L5.77,18.87z M9.79,14.79
	c-0.38,2.05-0.88,3.53-1.49,4.46c-0.48,0.72-1.01,1.07-1.58,1.07c-0.15,0-0.34-0.05-0.57-0.14v-0.49c0.11,0.02,0.24,0.03,0.39,0.03
	c0.27,0,0.48-0.08,0.65-0.22c0.2-0.18,0.3-0.38,0.3-0.6c0-0.16-0.08-0.47-0.23-0.94l-1.01-3.16h0.91l0.73,2.36
	c0.16,0.54,0.23,0.91,0.2,1.12c0.4-1.06,0.68-2.23,0.84-3.48C8.91,14.79,9.79,14.79,9.79,14.79z M22.11,18.87h-2.63v-5.53h0.89v4.85
	h1.75V18.87z M18.79,19l-1.02-0.5c0.09-0.08,0.18-0.16,0.25-0.25c0.43-0.51,0.65-1.26,0.65-2.25c0-1.83-0.72-2.75-2.16-2.75
	c-0.7,0-1.25,0.23-1.65,0.7c-0.43,0.51-0.65,1.26-0.65,2.24c0,0.97,0.19,1.69,0.57,2.14c0.35,0.41,0.88,0.61,1.58,0.61
	c0.26,0,0.51-0.03,0.73-0.1l1.33,0.77L18.79,19L18.79,19z M15.5,17.76c-0.23-0.36-0.34-0.94-0.34-1.74c0-1.39,0.42-2.09,1.27-2.09
	c0.44,0,0.77,0.17,0.98,0.5c0.22,0.36,0.34,0.94,0.34,1.72c0,1.4-0.42,2.11-1.27,2.11C16.03,18.27,15.71,18.1,15.5,17.76L15.5,17.76
	z M13.84,17.34c0,0.47-0.17,0.86-0.52,1.16s-0.8,0.45-1.38,0.45c-0.54,0-1.06-0.17-1.57-0.51l0.24-0.48
	c0.44,0.22,0.83,0.33,1.19,0.33c0.33,0,0.59-0.07,0.78-0.22c0.19-0.15,0.3-0.35,0.3-0.61c0-0.33-0.23-0.61-0.65-0.84
	c-0.39-0.21-1.16-0.66-1.16-0.66c-0.42-0.31-0.63-0.64-0.63-1.18c0-0.45,0.16-0.81,0.47-1.09c0.31-0.28,0.72-0.41,1.22-0.41
	c0.51,0,0.98,0.14,1.4,0.41l-0.21,0.48c-0.36-0.15-0.72-0.23-1.06-0.23c-0.28,0-0.5,0.07-0.65,0.21c-0.15,0.14-0.25,0.31-0.25,0.52
	c0,0.33,0.23,0.61,0.67,0.85c0.39,0.22,1.19,0.67,1.19,0.67C13.63,16.48,13.85,16.8,13.84,17.34L13.84,17.34z M23.22,11.49
	c-0.53-0.01-0.95,0.04-1.3,0.19c-0.1,0.04-0.26,0.04-0.27,0.17c0.06,0.05,0.06,0.14,0.11,0.21c0.08,0.13,0.22,0.31,0.35,0.41
	c0.14,0.11,0.28,0.22,0.43,0.31c0.26,0.16,0.56,0.26,0.81,0.42c0.15,0.09,0.29,0.21,0.44,0.31c0.07,0.05,0.12,0.14,0.21,0.17v-0.02
	c-0.05-0.06-0.06-0.15-0.1-0.21c-0.07-0.07-0.13-0.13-0.2-0.19c-0.19-0.26-0.43-0.49-0.69-0.68c-0.21-0.15-0.68-0.35-0.77-0.6
	l-0.01-0.01c0.15-0.01,0.32-0.07,0.46-0.11c0.23-0.06,0.43-0.05,0.67-0.11c0.11-0.03,0.21-0.06,0.32-0.09V11.6
	c-0.12-0.12-0.21-0.28-0.33-0.4c-0.34-0.3-0.72-0.58-1.1-0.82c-0.21-0.13-0.48-0.22-0.7-0.33c-0.08-0.04-0.21-0.06-0.26-0.13
	C21.15,9.77,21.08,9.58,21,9.4c-0.19-0.37-0.38-0.77-0.55-1.16c-0.12-0.26-0.19-0.52-0.34-0.76c-0.69-1.14-1.44-1.83-2.59-2.5
	c-0.25-0.14-0.54-0.2-0.86-0.27c-0.17-0.01-0.33-0.02-0.5-0.03c-0.11-0.05-0.22-0.17-0.31-0.24c-0.38-0.24-1.36-0.76-1.64-0.07
	c-0.18,0.43,0.27,0.86,0.42,1.08c0.11,0.15,0.26,0.33,0.34,0.5c0.05,0.12,0.06,0.24,0.11,0.36c0.11,0.29,0.21,0.62,0.35,0.9
	c0.07,0.14,0.15,0.29,0.25,0.41c0.05,0.07,0.15,0.11,0.17,0.23c-0.09,0.14-0.1,0.33-0.15,0.5c-0.24,0.76-0.15,1.69,0.19,2.25
	c0.11,0.17,0.36,0.53,0.7,0.39c0.3-0.12,0.23-0.5,0.32-0.84c0.02-0.08,0.01-0.13,0.05-0.19v0.02c0.09,0.19,0.19,0.37,0.27,0.56
	c0.21,0.33,0.57,0.67,0.87,0.9c0.16,0.12,0.29,0.33,0.49,0.4v-0.02h-0.01c-0.04-0.06-0.1-0.09-0.15-0.13
	c-0.12-0.12-0.25-0.27-0.35-0.4c-0.28-0.38-0.53-0.79-0.75-1.22c-0.11-0.21-0.2-0.44-0.29-0.64c-0.04-0.08-0.04-0.2-0.11-0.24
	c-0.1,0.15-0.25,0.27-0.32,0.45c-0.13,0.29-0.14,0.64-0.19,1.01c-0.03,0.01-0.01,0-0.03,0.01c-0.21-0.05-0.29-0.27-0.37-0.46
	c-0.2-0.48-0.23-1.24-0.06-1.78C16,8.27,16.2,7.83,16.12,7.69c-0.04-0.13-0.17-0.2-0.25-0.3c-0.09-0.12-0.18-0.28-0.24-0.43
	c-0.16-0.37-0.24-0.79-0.41-1.16C15.14,5.63,15,5.45,14.89,5.29c-0.13-0.18-0.27-0.31-0.37-0.52c-0.03-0.07-0.08-0.19-0.03-0.27
	c0.01-0.05,0.04-0.07,0.09-0.09c0.09-0.07,0.34,0.02,0.42,0.06c0.25,0.1,0.45,0.19,0.66,0.33c0.09,0.07,0.19,0.19,0.31,0.23h0.14
	c0.21,0.05,0.45,0.01,0.66,0.07c0.35,0.11,0.67,0.28,0.96,0.46c0.88,0.56,1.6,1.35,2.09,2.29c0.08,0.15,0.11,0.3,0.19,0.45
	c0.14,0.33,0.31,0.66,0.45,0.98c0.14,0.31,0.27,0.64,0.48,0.9c0.1,0.14,0.5,0.21,0.68,0.29c0.13,0.06,0.34,0.11,0.46,0.19
	c0.23,0.14,0.45,0.3,0.67,0.45C22.87,11.18,23.2,11.35,23.22,11.49z"/>
</svg>
