<?xml version="1.0" encoding="utf-8"?>
<!-- Generator: Adobe Illustrator 24.0.3, SVG Export Plug-In . SVG Version: 6.00 Build 0)  -->
<svg version="1.1" id="Layer_1" xmlns="http://www.w3.org/2000/svg" xmlns:xlink="http://www.w3.org/1999/xlink" x="0px" y="0px"
	 viewBox="0 0 24 24" style="enable-background:new 0 0 24 24;" xml:space="preserve">
<style type="text/css">
	.st0{fill:#6082BB;}
</style>
<title>PHP icon</title>
<path class="st0" d="M7.01,10.21H6.07l-0.51,2.65h0.84c0.56,0,0.97-0.1,1.24-0.31c0.27-0.21,0.46-0.56,0.55-1.05
	c0.09-0.47,0.05-0.8-0.12-0.99C7.88,10.3,7.53,10.21,7.01,10.21z M12,5.69C5.37,5.69,0,8.51,0,12s5.37,6.31,12,6.31S24,15.49,24,12
	S18.63,5.69,12,5.69z M8.74,13.14c-0.26,0.25-0.57,0.44-0.92,0.55c-0.34,0.11-0.76,0.16-1.28,0.16H5.36l-0.33,1.68H3.65l1.23-6.33
	h2.65c0.8,0,1.38,0.21,1.74,0.63c0.37,0.42,0.48,1,0.33,1.75c-0.06,0.3-0.16,0.58-0.31,0.85C9.16,12.69,8.97,12.93,8.74,13.14z
	 M12.76,13.85l0.54-2.8c0.06-0.32,0.04-0.54-0.07-0.65c-0.11-0.12-0.34-0.17-0.69-0.17h-1.09l-0.7,3.62H9.39l1.23-6.33h1.37
	l-0.33,1.68h1.22c0.77,0,1.3,0.13,1.59,0.4s0.38,0.7,0.26,1.3l-0.57,2.94H12.76z M20.36,11.59c-0.06,0.3-0.16,0.58-0.31,0.85
	c-0.14,0.26-0.33,0.49-0.56,0.7c-0.26,0.25-0.57,0.44-0.92,0.55c-0.34,0.11-0.76,0.16-1.29,0.16h-1.18l-0.33,1.68h-1.38l1.23-6.33
	h2.65c0.8,0,1.38,0.21,1.74,0.63C20.4,10.25,20.51,10.84,20.36,11.59z M17.77,10.21h-0.94l-0.52,2.65h0.84
	c0.56,0,0.97-0.1,1.24-0.31c0.27-0.21,0.45-0.56,0.55-1.05c0.09-0.47,0.05-0.8-0.12-0.99S18.29,10.21,17.77,10.21z"/>
</svg>
