<?xml version="1.0" encoding="utf-8"?>
<!-- Generator: Adobe Illustrator 24.0.3, SVG Export Plug-In . SVG Version: 6.00 Build 0)  -->
<svg version="1.1" id="Layer_1" xmlns="http://www.w3.org/2000/svg" xmlns:xlink="http://www.w3.org/1999/xlink" x="0px" y="0px"
	 viewBox="0 0 24 24" style="enable-background:new 0 0 24 24;" xml:space="preserve">
<style type="text/css">
	.st0{fill:#FFFF33;}
	.st1{fill:#663300;}
	.st2{fill:#003366;}
	.st3{fill:#FFFFFF;}
</style>
<title>Python icon</title>
<g>
	<path class="st0" d="M20.71,6.73l0.26,0.06l0.3,0.11l0.33,0.17l0.34,0.25l0.34,0.33l0.33,0.44l0.3,0.55l0.26,0.68l0.2,0.82
		l0.13,0.97l0.05,1.15l-0.06,1.15l-0.15,0.97l-0.22,0.8l-0.3,0.66l-0.34,0.53l-0.37,0.42L21.7,17.1l-0.39,0.22l-0.37,0.15
		l-0.34,0.08l-0.3,0.05l-0.22,0.02l-0.15-0.01h-7.67v0.77h5.45l0.01,2.58l0.02,0.34l-0.05,0.32l-0.1,0.29l-0.16,0.27l-0.23,0.23
		l-0.29,0.22l-0.35,0.19l-0.41,0.16l-0.48,0.14l-0.54,0.12l-0.6,0.08l-0.66,0.07l-0.72,0.04l-0.78,0.01l-1.19-0.04l-1-0.13
		l-0.84-0.19l-0.68-0.23L8.1,22.56l-0.42-0.31l-0.32-0.32l-0.23-0.32L6.98,21.3l-0.09-0.28l-0.04-0.23L6.83,20.6l0.01-0.12V15.5
		l0.05-0.6l0.12-0.5l0.2-0.43l0.24-0.35l0.28-0.3l0.31-0.22l0.33-0.19l0.33-0.13l0.31-0.09l0.28-0.06l0.24-0.04l0.2-0.02l0.12-0.01
		h5.45l0.64-0.05l0.55-0.13l0.47-0.2l0.38-0.26l0.31-0.3l0.25-0.33l0.19-0.34l0.14-0.34l0.09-0.33l0.07-0.3l0.04-0.26l0.02-0.2V6.69
		h1.95l0.13,0.01C20.51,6.7,20.71,6.73,20.71,6.73z M16.26,20.33l-0.21-0.31l-0.31-0.21l-0.38-0.07l-0.38,0.07l-0.31,0.21
		l-0.21,0.31l-0.07,0.38l0.07,0.38l0.21,0.31l0.31,0.21l0.38,0.07l0.38-0.07l0.31-0.21l0.21-0.31"/>
</g>
<path class="st1" d="M61.39-17.02"/>
<polygon class="st2" points="14.21,0.61 15.05,0.79 15.73,1.03 16.28,1.31 16.7,1.61 17.02,1.93 17.25,2.25 17.4,2.56 17.49,2.84 
	17.53,3.08 17.55,3.27 17.54,3.39 17.54,8.37 17.49,8.96 17.37,9.47 17.18,9.9 16.93,10.26 16.65,10.54 16.35,10.78 16.02,10.96 
	15.69,11.09 15.38,11.18 15.1,11.24 14.86,11.28 14.67,11.3 9.09,11.3 8.45,11.35 7.9,11.48 7.43,11.68 7.05,11.93 6.74,12.23 
	6.49,12.56 6.3,12.9 6.16,13.24 6.07,13.57 6.01,13.87 5.97,14.12 5.95,14.31 5.95,17.17 3.87,17.17 3.67,17.14 3.41,17.08 
	3.11,16.97 2.79,16.8 2.45,16.55 2.11,16.22 1.79,15.79 1.49,15.24 1.23,14.56 1.03,13.74 0.9,12.76 0.85,11.61 0.91,10.47 
	1.06,9.5 1.28,8.69 1.58,8.02 1.92,7.49 2.29,7.08 2.68,6.77 3.07,6.55 3.45,6.4 3.78,6.31 4.08,6.26 4.31,6.25 4.46,6.25 
	4.51,6.26 12.13,6.26 12.13,5.49 6.68,5.49 6.67,2.92 6.65,2.57 6.7,2.26 6.8,1.97 6.96,1.71 7.19,1.46 7.48,1.25 7.83,1.06 
	8.24,0.89 8.72,0.75 9.26,0.64 9.86,0.55 10.52,0.49 11.24,0.46 12.02,0.44 13.21,0.48 "/>
<polygon class="st3" points="8.7,2.49 8.48,2.81 8.41,3.2 8.48,3.59 8.7,3.91 9.02,4.13 9.41,4.21 9.8,4.13 10.12,3.91 10.34,3.59 
	10.42,3.2 10.34,2.81 10.12,2.49 9.8,2.28 9.41,2.19 9.02,2.28 "/>
</svg>
