<?xml version="1.0" encoding="utf-8"?>
<!-- Generator: Adobe Illustrator 24.0.3, SVG Export Plug-In . SVG Version: 6.00 Build 0)  -->
<svg version="1.1" id="Layer_1" xmlns="http://www.w3.org/2000/svg" xmlns:xlink="http://www.w3.org/1999/xlink" x="0px" y="0px"
	 viewBox="0 0 24 24" style="enable-background:new 0 0 24 24;" xml:space="preserve">
<style type="text/css">
	.st0{fill:#66CCFF;}
</style>
<title>React icon</title>
<path class="st0" d="M12,9.86c-1.18,0-2.14,0.96-2.14,2.14s0.96,2.14,2.14,2.14s2.14-0.96,2.14-2.14S13.18,9.86,12,9.86z
	 M6.01,16.25l-0.47-0.12C2.02,15.25,0,13.74,0,12s2.02-3.25,5.54-4.14l0.47-0.12l0.13,0.47c0.36,1.23,0.81,2.42,1.36,3.58L7.6,12
	l-0.1,0.21c-0.55,1.15-1.01,2.35-1.36,3.58C6.14,15.79,6.01,16.26,6.01,16.25z M5.32,8.95C2.64,9.7,1,10.85,1,12
	c0,1.15,1.64,2.29,4.32,3.05C5.64,14,6.04,12.98,6.5,12C6.04,11.01,5.64,9.99,5.32,8.95z M17.99,16.25l-0.13-0.47
	c-0.36-1.23-0.81-2.42-1.36-3.58L16.39,12l0.1-0.21c0.55-1.15,1.01-2.35,1.36-3.58l0.13-0.47l0.47,0.12C21.98,8.74,24,10.25,24,12
	s-2.02,3.25-5.53,4.14L17.99,16.25z M17.5,12c0.48,1.04,0.88,2.06,1.18,3.05C21.36,14.29,23,13.14,23,12c0-1.15-1.64-2.29-4.32-3.05
	C18.36,9.99,17.96,11.01,17.5,12z M5.31,8.94L5.18,8.48C4.19,4.99,4.49,2.49,6,1.62c1.48-0.86,3.86,0.15,6.36,2.72l0.34,0.35
	l-0.34,0.35C11.47,5.96,10.66,6.95,9.94,8L9.8,8.2L9.57,8.22c-1.28,0.1-2.54,0.3-3.78,0.61C5.78,8.83,5.31,8.95,5.31,8.94z
	 M7.21,2.31c-0.27,0-0.51,0.06-0.7,0.17C5.51,3.06,5.33,5.05,6.02,7.74c1.07-0.24,2.15-0.4,3.23-0.5C9.88,6.35,10.56,5.5,11.3,4.7
	C9.74,3.18,8.26,2.31,7.21,2.31z M16.8,22.68C16.79,22.68,16.79,22.68,16.8,22.68c-1.43,0-3.26-1.07-5.15-3.02L11.3,19.3l0.34-0.35
	c0.89-0.92,1.7-1.91,2.42-2.97l0.14-0.19l0.23-0.02c1.28-0.1,2.54-0.3,3.79-0.61l0.47-0.12l0.13,0.47C19.81,19,19.51,21.5,18,22.37
	C17.63,22.58,17.22,22.68,16.8,22.68z M12.7,19.3c1.56,1.52,3.04,2.38,4.09,2.38h0c0.27,0,0.5-0.06,0.7-0.17
	c0.99-0.57,1.17-2.57,0.49-5.25c-1.07,0.24-2.15,0.4-3.23,0.5C14.12,17.64,13.44,18.49,12.7,19.3z M18.69,8.94l-0.47-0.12
	c-1.24-0.31-2.51-0.51-3.79-0.61L14.2,8.2L14.06,8c-0.72-1.05-1.53-2.05-2.42-2.97L11.3,4.69l0.34-0.35
	c2.49-2.56,4.87-3.57,6.36-2.72c1.51,0.87,1.81,3.37,0.82,6.86C18.82,8.48,18.69,8.95,18.69,8.94z M14.75,7.24
	c1.14,0.1,2.23,0.27,3.23,0.5c0.69-2.69,0.51-4.68-0.49-5.25c-0.99-0.57-2.85,0.3-4.8,2.21C13.44,5.5,14.12,6.35,14.75,7.24z
	 M7.21,22.68c-0.42,0.01-0.84-0.1-1.21-0.31C4.49,21.5,4.19,19,5.18,15.51l0.13-0.47l0.47,0.12c1.15,0.29,2.43,0.5,3.78,0.61
	L9.8,15.8l0.13,0.19c0.73,1.05,1.54,2.05,2.42,2.97l0.34,0.35l-0.34,0.35C10.46,21.6,8.63,22.68,7.21,22.68z M6.02,16.25
	c-0.69,2.69-0.51,4.68,0.49,5.25c0.99,0.56,2.84-0.31,4.8-2.21c-0.74-0.8-1.42-1.65-2.05-2.55C8.16,16.65,7.08,16.49,6.02,16.25z
	 M12,16.88c-0.82,0-1.67-0.04-2.52-0.11l-0.23-0.02l-0.14-0.19c-0.48-0.69-0.93-1.4-1.35-2.12c-0.42-0.73-0.81-1.47-1.17-2.23
	L6.5,12l0.1-0.21c0.36-0.76,0.75-1.5,1.17-2.23c0.41-0.72,0.87-1.43,1.35-2.12l0.14-0.19l0.23-0.02c1.67-0.14,3.36-0.14,5.03,0
	l0.23,0.02l0.13,0.19c0.96,1.38,1.8,2.83,2.52,4.35L17.5,12l-0.1,0.21c-0.71,1.52-1.56,2.97-2.52,4.35l-0.13,0.19l-0.23,0.02
	C13.67,16.84,12.82,16.88,12,16.88z M9.8,15.79c1.48,0.11,2.91,0.11,4.4,0c0.83-1.21,1.56-2.48,2.2-3.8
	c-0.63-1.32-1.37-2.59-2.2-3.8c-1.46-0.11-2.93-0.11-4.39,0c-0.83,1.21-1.56,2.48-2.2,3.8C8.24,13.32,8.98,14.59,9.8,15.79z"/>
</svg>
