<?xml version="1.0" encoding="utf-8"?>
<!-- Generator: Adobe Illustrator 24.0.3, SVG Export Plug-In . SVG Version: 6.00 Build 0)  -->
<svg version="1.1" id="Layer_1" xmlns="http://www.w3.org/2000/svg" xmlns:xlink="http://www.w3.org/1999/xlink" x="0px" y="0px"
	 viewBox="0 0 120 120" style="enable-background:new 0 0 120 120;" xml:space="preserve">
<style type="text/css">
	.st0{fill:#BCBBBB;}
	.st1{fill:#F48023;}
</style>
<path class="st0" d="M95.66,109.33V77.18h10.67V120h-96.3V77.18h10.67v32.15H95.66z"/>
<path class="st1" d="M32.47,74.13l52.38,10.95l2.22-10.53L34.69,63.6L32.47,74.13z M39.4,49.19l48.5,22.59l4.43-9.7l-48.5-22.73
	C43.83,39.35,39.4,49.19,39.4,49.19z M52.84,25.36L94,59.58l6.79-8.18L59.63,17.18C59.63,17.18,52.84,25.36,52.84,25.36z M79.45,0
	l-8.59,6.37l31.87,42.96l8.59-6.37L79.45,0z M31.36,98.52h53.49V87.85H31.36V98.52z"/>
</svg>
