<?xml version="1.0" encoding="utf-8"?>
<!-- Generator: Adobe Illustrator 24.0.3, SVG Export Plug-In . SVG Version: 6.00 Build 0)  -->
<svg version="1.1" id="Layer_1" xmlns="http://www.w3.org/2000/svg" xmlns:xlink="http://www.w3.org/1999/xlink" x="0px" y="0px"
	 viewBox="0 0 24 24" style="enable-background:new 0 0 24 24;" xml:space="preserve">
<style type="text/css">
	.st0{fill:#007ACC;}
</style>
<title>TypeScript icon</title>
<path class="st0" d="M0,12v12h24V0H0V12z M19.34,11.04c0.61,0.15,1.07,0.42,1.5,0.86c0.22,0.24,0.55,0.67,0.58,0.77
	c0.01,0.03-1.04,0.73-1.67,1.12c-0.02,0.02-0.11-0.08-0.22-0.24c-0.31-0.45-0.63-0.64-1.13-0.68c-0.73-0.05-1.2,0.33-1.19,0.97
	c-0.01,0.16,0.03,0.31,0.1,0.45c0.16,0.33,0.46,0.53,1.39,0.93c1.72,0.74,2.45,1.23,2.91,1.92c0.51,0.77,0.62,2.01,0.28,2.93
	c-0.38,1-1.33,1.68-2.66,1.9c-0.41,0.07-1.39,0.06-1.83-0.02c-0.96-0.17-1.88-0.65-2.44-1.27c-0.22-0.24-0.65-0.88-0.62-0.92
	c0.01-0.02,0.11-0.08,0.22-0.14c0.11-0.06,0.51-0.29,0.89-0.51l0.69-0.4l0.15,0.21c0.2,0.31,0.64,0.73,0.91,0.87
	c0.77,0.4,1.82,0.35,2.33-0.12c0.21-0.18,0.33-0.44,0.31-0.72c0-0.28-0.03-0.4-0.18-0.61c-0.19-0.27-0.57-0.49-1.65-0.96
	c-1.24-0.53-1.77-0.86-2.26-1.39c-0.3-0.35-0.53-0.76-0.66-1.2c-0.09-0.34-0.11-1.19-0.04-1.53c0.26-1.2,1.16-2.03,2.46-2.28
	C17.94,10.91,18.93,10.94,19.34,11.04z M13.71,12.05l0.01,0.98h-3.12v8.88H8.38v-8.88H5.26v-0.96c0-0.53,0.01-0.98,0.03-0.99
	c0.01-0.02,1.91-0.02,4.22-0.02l4.19,0.01L13.71,12.05z"/>
</svg>
