<?xml version="1.0" encoding="utf-8"?>
<!-- Generator: Adobe Illustrator 24.0.3, SVG Export Plug-In . SVG Version: 6.00 Build 0)  -->
<svg version="1.1" id="Layer_1" xmlns="http://www.w3.org/2000/svg" xmlns:xlink="http://www.w3.org/1999/xlink" x="0px" y="0px"
	 viewBox="0 0 24 24" style="enable-background:new 0 0 24 24;" xml:space="preserve">
<style type="text/css">
	.st0{fill:#0066CC;}
</style>
<title>Visual Studio Code icon</title>
<path class="st0" d="M23.15,2.59l-4.94-2.38c-0.57-0.28-1.26-0.16-1.7,0.29L7.04,9.13L2.92,6C2.54,5.71,2.01,5.74,1.65,6.06
	l-1.32,1.2c-0.41,0.37-0.44,1-0.07,1.41C0.28,8.7,0.3,8.72,0.33,8.74L3.9,12l-3.57,3.26c-0.41,0.37-0.44,1-0.07,1.41
	c0.02,0.02,0.04,0.05,0.07,0.07l1.32,1.2c0.36,0.32,0.89,0.35,1.28,0.06l4.12-3.13l9.46,8.63c0.45,0.45,1.13,0.57,1.7,0.29
	l4.94-2.38c0.52-0.25,0.85-0.78,0.85-1.35V3.94C24,3.36,23.67,2.84,23.15,2.59z M18,17.45L10.83,12L18,6.55V17.45z"/>
</svg>
