<?xml version="1.0" encoding="utf-8"?>
<!-- Generator: Adobe Illustrator 24.0.3, SVG Export Plug-In . SVG Version: 6.00 Build 0)  -->
<svg version="1.1" id="Layer_1" xmlns="http://www.w3.org/2000/svg" xmlns:xlink="http://www.w3.org/1999/xlink" x="0px" y="0px"
	 viewBox="0 0 24 24" style="enable-background:new 0 0 24 24;" xml:space="preserve">
<style type="text/css">
	.st0{fill:#961A1F;}
</style>
<title>WebGL icon</title>
<path class="st0" d="M18.93,14.18c-0.21,0.09-0.43,0.14-0.64,0.14c-0.34,0-0.65-0.06-0.92-0.18c-0.26-0.11-0.5-0.28-0.69-0.49
	c-0.19-0.21-0.33-0.45-0.43-0.73s-0.15-0.59-0.15-0.91c0-0.34,0.05-0.64,0.15-0.93c0.1-0.29,0.24-0.54,0.43-0.75
	c0.19-0.22,0.43-0.39,0.69-0.5c0.29-0.13,0.61-0.19,0.92-0.18c0.23,0,0.45,0.04,0.66,0.1c0.21,0.07,0.41,0.17,0.58,0.3
	s0.32,0.3,0.43,0.5c0.12,0.21,0.19,0.44,0.21,0.68h-0.93c-0.06-0.25-0.17-0.44-0.34-0.56c-0.18-0.13-0.39-0.19-0.61-0.19
	c-0.22,0-0.41,0.04-0.56,0.13s-0.28,0.2-0.38,0.34c-0.09,0.15-0.17,0.31-0.21,0.49S17.07,11.8,17.07,12c0,0.19,0.02,0.37,0.07,0.55
	c0.04,0.18,0.11,0.34,0.21,0.48s0.22,0.26,0.38,0.34s0.34,0.13,0.56,0.13c0.33,0,0.58-0.08,0.75-0.25c0.18-0.16,0.28-0.4,0.31-0.71
	h-0.99V11.8h1.87v2.41h-0.62l-0.1-0.51C19.36,13.91,19.16,14.08,18.93,14.18z M21.82,9.75v3.63H24v0.83h-3.16V9.75H21.82z M2.79,12
	c0-0.71,0.34-1.38,0.95-1.96l1.11,4.22h0.76l1.07-3.82l1.06,3.82h0.77L9.83,9.4H8.97l-0.86,3.72L7.07,9.4H6.28l-1.04,3.73L4.4,9.49
	C5.89,8.47,8.27,7.8,10.95,7.8c2.51,0,4.76,0.53,6.26,1.45c-1.63-1.53-4.57-2.61-7.91-2.61C4.16,6.64,0,9.04,0,12
	s4.16,5.37,9.29,5.37c3.34,0,6.26-1.08,7.9-2.6c-1.5,0.91-3.74,1.43-6.24,1.43C6.44,16.19,2.79,14.32,2.79,12z M11.98,11.45
	c-0.11-0.16-0.27-0.3-0.44-0.38c-0.19-0.09-0.41-0.14-0.62-0.14c-0.26,0-0.5,0.05-0.7,0.14c-0.19,0.09-0.36,0.22-0.49,0.39
	c-0.24,0.31-0.37,0.75-0.37,1.27c0,0.23,0.03,0.45,0.1,0.64c0.06,0.19,0.16,0.36,0.28,0.52c0.26,0.3,0.63,0.47,1.08,0.47
	c0.23,0,0.42-0.02,0.58-0.07c0.14-0.04,0.23-0.1,0.31-0.15c0.19-0.12,0.34-0.29,0.44-0.49c0.09-0.17,0.14-0.32,0.15-0.4l0.01-0.06
	h-0.63l0,0.05c-0.02,0.21-0.29,0.57-0.77,0.57c-0.69,0-0.85-0.5-0.86-0.94h2.31v-0.05c0-0.26-0.03-0.52-0.09-0.77
	C12.19,11.83,12.1,11.63,11.98,11.45z M10.84,11.5c0.51,0,0.78,0.27,0.83,0.84h-1.65C10.05,11.88,10.41,11.5,10.84,11.5z
	 M15.52,11.91c-0.06-0.19-0.15-0.36-0.27-0.52c-0.12-0.15-0.27-0.27-0.44-0.35c-0.18-0.09-0.38-0.13-0.59-0.13
	c-0.18,0-0.37,0.04-0.53,0.13c-0.13,0.07-0.25,0.16-0.35,0.28V9.84h-0.63v4.41h0.6v-0.3c0.06,0.08,0.13,0.15,0.21,0.21
	c0.17,0.12,0.38,0.19,0.63,0.19c0.26,0,0.5-0.06,0.7-0.18c0.18-0.1,0.33-0.25,0.45-0.44c0.11-0.18,0.19-0.38,0.23-0.58
	c0.05-0.2,0.07-0.4,0.07-0.6C15.61,12.33,15.58,12.11,15.52,11.91z M14.95,12.63c0,0.35-0.07,0.64-0.2,0.84
	c-0.13,0.21-0.36,0.33-0.61,0.32c-0.38,0-0.82-0.26-0.82-1.01c0-0.36,0.05-0.63,0.14-0.84c0.13-0.3,0.35-0.45,0.67-0.45
	c0.34,0,0.57,0.13,0.7,0.41C14.94,12.14,14.95,12.41,14.95,12.63z"/>
</svg>
