<?xml version="1.0" encoding="utf-8"?>
<!-- Generator: Adobe Illustrator 24.0.3, SVG Export Plug-In . SVG Version: 6.00 Build 0)  -->
<svg version="1.1" id="Layer_1" xmlns="http://www.w3.org/2000/svg" xmlns:xlink="http://www.w3.org/1999/xlink" x="0px" y="0px"
	 viewBox="0 0 32 32" style="enable-background:new 0 0 32 32;" xml:space="preserve">
<style type="text/css">
	.st0{fill-rule:evenodd;clip-rule:evenodd;fill:#CCCCCC;}
</style>
<path class="st0" d="M24.5,10.7c-2.26-2.26-5.26-3.5-8.45-3.5C9.46,7.19,4.1,12.55,4.1,19.14c0,2.11,0.55,4.16,1.59,5.97L4,31.3
	l6.34-1.66c1.74,0.95,3.71,1.45,5.71,1.46h0C22.64,31.1,28,25.74,28,19.15C28,15.96,26.76,12.96,24.5,10.7z M16.05,29.08
	L16.05,29.08c-1.79,0-3.54-0.48-5.06-1.38l-0.36-0.21l-3.76,0.98l1-3.66l-0.23-0.38c-1-1.58-1.52-3.41-1.52-5.29
	c0-5.47,4.46-9.93,9.94-9.93c2.65,0,5.14,1.04,7.02,2.91c1.88,1.88,2.91,4.37,2.91,7.02C25.98,24.62,21.52,29.08,16.05,29.08z
	 M21.5,21.64c-0.3-0.15-1.77-0.87-2.04-0.97c-0.27-0.1-0.47-0.15-0.67,0.15c-0.2,0.3-0.77,0.97-0.95,1.17
	c-0.17,0.2-0.35,0.22-0.64,0.07c-0.3-0.15-1.26-0.46-2.4-1.48c-0.89-0.79-1.49-1.77-1.66-2.07c-0.18-0.3-0.02-0.46,0.13-0.61
	c0.14-0.13,0.3-0.35,0.45-0.52c0.15-0.17,0.2-0.3,0.3-0.5c0.1-0.2,0.05-0.38-0.03-0.52s-0.67-1.62-0.92-2.22
	c-0.24-0.58-0.49-0.5-0.67-0.51c-0.17-0.01-0.37-0.01-0.57-0.01c-0.2,0-0.52,0.07-0.8,0.38c-0.27,0.3-1.04,1.02-1.04,2.49
	s1.07,2.89,1.22,3.09c0.15,0.2,2.11,3.21,5.1,4.5c0.71,0.31,1.27,0.49,1.7,0.63c0.71,0.23,1.37,0.2,1.88,0.12
	c0.57-0.09,1.77-0.72,2.02-1.42c0.25-0.7,0.25-1.29,0.17-1.42S21.8,21.79,21.5,21.64z"/>
</svg>
