<?xml version="1.0" encoding="utf-8"?>
<!-- Generator: Adobe Illustrator 24.0.3, SVG Export Plug-In . SVG Version: 6.00 Build 0)  -->
<svg version="1.1" id="Layer_1" xmlns="http://www.w3.org/2000/svg" xmlns:xlink="http://www.w3.org/1999/xlink" x="0px" y="0px"
	 viewBox="0 0 24 24" style="enable-background:new 0 0 24 24;" xml:space="preserve">
<style type="text/css">
	.st0{fill:#006699;}
</style>
<title>WordPress icon</title>
<path class="st0" d="M21.47,6.82c0.84,1.54,1.32,3.3,1.32,5.18c0,3.98-2.16,7.46-5.36,9.33l3.3-9.53c0.61-1.54,0.82-2.77,0.82-3.86
	C21.54,7.53,21.51,7.15,21.47,6.82 M13.49,6.93c0.65-0.03,1.23-0.11,1.23-0.11c0.58-0.07,0.51-0.93-0.07-0.9
	c0,0-1.76,0.14-2.88,0.14c-1.06,0-2.85-0.15-2.85-0.15C8.34,5.88,8.26,6.76,8.85,6.8c0,0,0.54,0.06,1.12,0.09l1.68,4.6l-2.37,7.08
	L5.35,6.9C6,6.87,6.59,6.8,6.59,6.8C7.17,6.73,7.1,5.87,6.52,5.9c0,0-1.75,0.14-2.87,0.14c-0.2,0-0.44-0.01-0.69-0.01
	C4.91,3.15,8.23,1.22,12,1.22c2.81,0,5.36,1.07,7.29,2.83c-0.05,0-0.09-0.01-0.14-0.01c-1.06,0-1.81,0.92-1.81,1.91
	c0,0.89,0.51,1.64,1.06,2.53c0.41,0.72,0.89,1.64,0.89,2.98c0,0.91-0.35,1.99-0.82,3.48l-1.08,3.59l-3.9-11.61
	C13.49,6.92,13.49,6.93,13.49,6.93z M12,22.78c-1.06,0-2.08-0.15-3.05-0.44l3.24-9.41l3.32,9.09c0.02,0.05,0.05,0.1,0.08,0.15
	C14.46,22.57,13.26,22.79,12,22.78 M1.21,12c0-1.56,0.34-3.05,0.93-4.39l5.14,14.1C3.69,19.96,1.21,16.27,1.21,12 M12,0
	C5.39,0,0,5.39,0,12s5.39,12,12,12s12-5.39,12-12S18.61,0,12,0"/>
</svg>
